<?xml version="1.0" encoding="utf-8"?>
<!-- Generator: Adobe Illustrator 15.0.0, SVG Export Plug-In . SVG Version: 6.00 Build 0)  -->
<!DOCTYPE svg PUBLIC "-//W3C//DTD SVG 1.1//EN" "http://www.w3.org/Graphics/SVG/1.1/DTD/svg11.dtd">
<svg version="1.1" id="Layer_1" xmlns="http://www.w3.org/2000/svg" xmlns:xlink="http://www.w3.org/1999/xlink" x="0px" y="0px"
	 width="400px" height="500px" viewBox="0 0 400 500" enable-background="new 0 0 400 500" xml:space="preserve">
<path fill="#763225" d="M194.262,284.361l-4.626-6.527l49.924-35.388l18.635-106.899l-31.52-65.147l-44.198-44.786l-38.579-13.789
	l2.692-7.533l39.438,14.096c0.566,0.202,1.079,0.529,1.501,0.957l45.304,45.907c0.309,0.312,0.563,0.673,0.754,1.067l32.369,66.903
	c0.365,0.754,0.483,1.604,0.34,2.429l-19.14,109.792c-0.182,1.04-0.767,1.966-1.627,2.576L194.262,284.361z"/>
<path fill="#EF4123" d="M190.236,277.737c-1.655,0-3.204-1.035-3.778-2.687c-0.726-2.087,0.377-4.366,2.464-5.093l1.64-0.57
	l-9.367-44.603l28.011-35.927h37.957c2.209,0,4,1.791,4,4s-1.791,4-4,4h-34.051l-23.325,29.917l10.049,47.856l-8.288,2.883
	C191.116,277.666,190.672,277.737,190.236,277.737z"/>
<path fill="#8DC640" d="M175.51,282.366c-1.464,0-2.875-0.808-3.577-2.205l-19.605-39.031c-0.992-1.974-0.195-4.378,1.779-5.37
	c1.975-0.993,4.378-0.196,5.37,1.779l19.605,39.03c0.992,1.975,0.195,4.379-1.779,5.37
	C176.726,282.229,176.113,282.366,175.51,282.366z"/>
<path fill="#A9915D" d="M164.063,285.121c-1.106,0-2.208-0.456-2.999-1.351l-17.745-20.074c-1.463-1.655-1.307-4.184,0.348-5.646
	c1.655-1.464,4.184-1.309,5.646,0.348l17.745,20.074c1.463,1.655,1.307,4.184-0.348,5.646
	C165.95,284.791,165.004,285.121,164.063,285.121z"/>
<path fill="#03A5DE" d="M172.339,315.432c-2.133,0-3.904-1.684-3.994-3.834l-0.484-11.677l-9.834-5.33
	c-0.96-0.521-1.666-1.41-1.953-2.464l-1.736-6.363c-0.281-1.029-0.139-2.128,0.394-3.052s1.414-1.597,2.445-1.869l25.131-6.627
	c2.138-0.563,4.324,0.712,4.888,2.849c0.563,2.136-0.711,4.324-2.848,4.888l-21.23,5.598l0.224,0.822l10.328,5.598
	c1.238,0.671,2.032,1.943,2.091,3.351l0.578,13.945c0.091,2.208-1.624,4.071-3.831,4.162
	C172.451,315.431,172.395,315.432,172.339,315.432z"/>
<path fill="#932682" d="M204.812,312.412c-1.01,0-2.02-0.38-2.799-1.142l-25.979-25.436c-1.579-1.546-1.605-4.078-0.06-5.657
	c1.545-1.577,4.078-1.605,5.657-0.06l25.98,25.436c1.578,1.546,1.604,4.078,0.06,5.657
	C206.887,312.011,205.849,312.412,204.812,312.412z"/>
<path fill="#E80E8A" d="M251.706,493.925c-1.941,0-3.646-1.417-3.949-3.396l-26.056-170.02l-42.422-41.134
	c-1.586-1.538-1.625-4.07-0.087-5.656c1.539-1.587,4.07-1.625,5.656-0.088l43.387,42.07c0.627,0.607,1.037,1.403,1.17,2.267
	l26.26,171.35c0.334,2.184-1.164,4.225-3.349,4.56C252.111,493.909,251.907,493.925,251.706,493.925z"/>
<path fill="#C96D29" d="M180.869,277.187c-1.815,0-3.458-1.244-3.891-3.087l-18.089-77.104l-32.798-46.851
	c-0.539-0.77-0.79-1.705-0.708-2.64L137.35,9.841c0.191-2.201,2.124-3.835,4.331-3.639c2.201,0.191,3.83,2.13,3.639,4.331
	l-11.841,136.215l32.405,46.291c0.292,0.417,0.501,0.885,0.617,1.38l18.265,77.852c0.505,2.151-0.83,4.304-2.98,4.809
	C181.479,277.152,181.171,277.187,180.869,277.187z"/>
<path fill="#01A64F" d="M304.223,346.446c-0.71,0-1.429-0.189-2.079-0.586l-28.237-17.227l-42.807-9.363
	c-0.73-0.159-1.401-0.521-1.937-1.042l-42.479-41.379c-1.583-1.541-1.616-4.074-0.074-5.656c1.54-1.582,4.073-1.617,5.656-0.074
	l41.659,40.581l42.345,9.262c0.435,0.095,0.85,0.261,1.229,0.492l28.811,17.576c1.886,1.15,2.482,3.612,1.332,5.498
	C306.888,345.764,305.571,346.446,304.223,346.446z"/>
<path fill="#F79420" d="M193.476,277.01c-1.078,0-2.152-0.433-2.941-1.288c-1.498-1.623-1.396-4.154,0.228-5.652l26.564-24.504
	c1.623-1.499,4.154-1.396,5.652,0.228c1.497,1.624,1.396,4.155-0.229,5.653l-26.563,24.505
	C195.418,276.659,194.445,277.01,193.476,277.01z"/>
<path fill="#00A6B9" d="M188.118,276.981c-1.847,0-3.506-1.286-3.908-3.165l-10.682-49.96c-0.25-1.169,0.036-2.389,0.78-3.325
	l18.806-23.673h-23.073c-1.302,0-2.522-0.633-3.271-1.698l-36.101-51.29c-1.271-1.807-0.838-4.302,0.969-5.573
	c1.807-1.271,4.303-0.837,5.573,0.969l34.906,49.592H201.4c1.535,0,2.935,0.878,3.603,2.261c0.667,1.382,0.484,3.025-0.471,4.227
	l-22.786,28.683l10.287,48.115c0.462,2.16-0.915,4.286-3.075,4.747C188.677,276.952,188.395,276.981,188.118,276.981z"/>
<g>
	<circle fill="#FFFFFF" cx="139.048" cy="38.808" r="6.646"/>
	<path fill="#231F20" d="M139.046,33.221c3.081,0,5.588,2.506,5.588,5.587c0,3.079-2.507,5.583-5.588,5.583
		c-3.079,0-5.583-2.504-5.583-5.583C133.463,35.728,135.967,33.221,139.046,33.221 M139.046,32.161
		c-3.668,0-6.644,2.976-6.644,6.647c0,3.669,2.976,6.644,6.644,6.644c3.672,0,6.648-2.975,6.648-6.644
		C145.694,35.136,142.718,32.161,139.046,32.161L139.046,32.161z"/>
</g>
<g>
	<circle fill="#FFFFFF" cx="185.594" cy="22.982" r="7.088"/>
	<path fill="#231F20" d="M185.598,17.023c3.283,0,5.954,2.673,5.954,5.959c0,3.284-2.671,5.956-5.954,5.956
		c-3.287,0-5.96-2.671-5.96-5.956C179.637,19.696,182.311,17.023,185.598,17.023 M185.598,15.892c-3.916,0-7.092,3.175-7.092,7.09
		c0,3.915,3.176,7.087,7.092,7.087c3.914,0,7.085-3.172,7.085-7.087C192.683,19.066,189.512,15.892,185.598,15.892L185.598,15.892z"
		/>
</g>
<g>
	<path fill="#FFFFFF" d="M139.226,110.755c0,3.915-3.173,7.087-7.091,7.087c-3.914,0-7.086-3.172-7.086-7.087
		c0-3.916,3.172-7.089,7.086-7.089C136.053,103.666,139.226,106.839,139.226,110.755z"/>
	<path fill="#231F20" d="M132.135,104.797c3.286,0,5.959,2.673,5.959,5.958c0,3.284-2.673,5.956-5.959,5.956
		c-3.283,0-5.955-2.672-5.955-5.956C126.18,107.47,128.852,104.797,132.135,104.797 M132.135,103.666
		c-3.914,0-7.086,3.173-7.086,7.089c0,3.915,3.172,7.087,7.086,7.087c3.918,0,7.091-3.172,7.091-7.087
		C139.226,106.839,136.053,103.666,132.135,103.666L132.135,103.666z"/>
</g>
<g>
	<g>
		<path fill="#FFFFFF" d="M186.584,291.438c7.83,0,14.178-6.348,14.182-14.176c-0.004-7.83-6.352-14.178-14.182-14.178
			c-7.829,0-14.178,6.348-14.174,14.178C172.41,285.09,178.755,291.438,186.584,291.438L186.584,291.438z"/>
		<path fill="#231F20" d="M186.584,264.568c6.998,0,12.693,5.694,12.697,12.692c-0.003,6.998-5.699,12.692-12.697,12.692
			c-6.997,0-12.689-5.693-12.689-12.692c-0.002-3.39,1.317-6.577,3.715-8.975C180.007,265.889,183.194,264.568,186.584,264.568
			 M186.584,263.084c-7.829,0-14.178,6.348-14.174,14.178c0,7.828,6.345,14.176,14.174,14.176c7.83,0,14.178-6.348,14.182-14.176
			C200.762,269.432,194.414,263.084,186.584,263.084L186.584,263.084z"/>
	</g>
	<polygon fill="#231F20" points="188.219,286.029 188.219,271.385 191.979,271.385 191.979,268.496 181.193,268.496 
		181.193,271.385 184.954,271.385 184.954,286.029 188.219,286.029 	"/>
</g>
<g>
	<path fill="#FFFFFF" d="M141.303,146.444c0,5.39-4.364,9.747-9.749,9.747c-5.379,0-9.745-4.357-9.745-9.747
		c0-5.379,4.366-9.746,9.745-9.746C136.938,136.698,141.303,141.065,141.303,146.444z"/>
	<path fill="#231F20" d="M131.554,137.688c4.83,0,8.759,3.928,8.759,8.756c0,4.829-3.929,8.757-8.759,8.757
		c-4.828,0-8.755-3.929-8.755-8.757C122.798,141.616,126.726,137.688,131.554,137.688 M131.554,136.698
		c-5.379,0-9.745,4.367-9.745,9.746c0,5.39,4.366,9.747,9.745,9.747c5.385,0,9.749-4.357,9.749-9.747
		C141.303,141.065,136.938,136.698,131.554,136.698L131.554,136.698z"/>
</g>
<g>
	<path fill="#FFFFFF" d="M261.852,193.459c0,5.389-4.361,9.748-9.746,9.748c-5.378,0-9.747-4.359-9.747-9.748
		c0-5.379,4.369-9.746,9.747-9.746C257.49,183.713,261.852,188.08,261.852,193.459z"/>
	<path fill="#231F20" d="M252.105,184.703c4.828,0,8.756,3.928,8.756,8.756c0,4.829-3.928,8.758-8.756,8.758
		c-4.829,0-8.757-3.929-8.757-8.758C243.349,188.631,247.276,184.703,252.105,184.703 M252.105,183.713
		c-5.378,0-9.747,4.367-9.747,9.746c0,5.389,4.369,9.748,9.747,9.748c5.385,0,9.746-4.359,9.746-9.748
		C261.852,188.08,257.49,183.713,252.105,183.713L252.105,183.713z"/>
</g>
<g>
	<path fill="#FFFFFF" d="M320.303,348.051c0,5.389-4.364,9.748-9.747,9.748c-5.378,0-9.747-4.359-9.747-9.748
		c0-5.379,4.369-9.746,9.747-9.746C315.938,338.305,320.303,342.672,320.303,348.051z"/>
	<path fill="#231F20" d="M310.556,339.295c4.829,0,8.757,3.928,8.757,8.756c0,4.829-3.928,8.758-8.757,8.758
		s-8.757-3.929-8.757-8.758C301.799,343.223,305.727,339.295,310.556,339.295 M310.556,338.305c-5.378,0-9.747,4.367-9.747,9.746
		c0,5.389,4.369,9.748,9.747,9.748c5.383,0,9.747-4.359,9.747-9.748C320.303,342.672,315.938,338.305,310.556,338.305
		L310.556,338.305z"/>
</g>
<g>
	<circle fill="#FFFFFF" cx="231.25" cy="69.272" r="7.089"/>
	<path fill="#231F20" d="M231.25,63.314c3.285,0,5.958,2.673,5.958,5.958c0,3.284-2.673,5.956-5.958,5.956s-5.958-2.671-5.958-5.956
		C225.292,65.987,227.965,63.314,231.25,63.314 M231.25,62.183c-3.916,0-7.089,3.174-7.089,7.09c0,3.915,3.173,7.087,7.089,7.087
		c3.913,0,7.089-3.172,7.089-7.087C238.339,65.357,235.163,62.183,231.25,62.183L231.25,62.183z"/>
</g>
<g>
	<path fill="#FFFFFF" d="M254.738,135.05c0,3.916,3.173,7.087,7.09,7.087c3.914,0,7.087-3.171,7.087-7.087
		c0-3.917-3.173-7.09-7.087-7.09C257.911,127.96,254.738,131.132,254.738,135.05z"/>
	<path fill="#231F20" d="M261.828,129.091c3.284,0,5.956,2.673,5.956,5.958c0,3.284-2.672,5.956-5.956,5.956
		c-3.285,0-5.959-2.671-5.959-5.956C255.869,131.764,258.543,129.091,261.828,129.091 M261.828,127.96
		c-3.917,0-7.09,3.172-7.09,7.09c0,3.916,3.173,7.087,7.09,7.087c3.914,0,7.087-3.171,7.087-7.087
		C268.915,131.132,265.742,127.96,261.828,127.96L261.828,127.96z"/>
</g>
<g>
	<path fill="#FFFFFF" d="M210.668,193.414c0,3.916-3.173,7.087-7.091,7.087c-3.911,0-7.087-3.171-7.087-7.087
		c0-3.915,3.176-7.09,7.087-7.09C207.495,186.324,210.668,189.499,210.668,193.414z"/>
	<path fill="#231F20" d="M203.577,187.455c3.286,0,5.96,2.673,5.96,5.958c0,3.284-2.674,5.956-5.96,5.956
		c-3.284,0-5.956-2.672-5.956-5.956C197.622,190.128,200.293,187.455,203.577,187.455 M203.577,186.324
		c-3.911,0-7.087,3.175-7.087,7.09c0,3.916,3.176,7.087,7.087,7.087c3.918,0,7.091-3.171,7.091-7.087
		C210.668,189.499,207.495,186.324,203.577,186.324L203.577,186.324z"/>
</g>
<g>
	<circle fill="#FFFFFF" cx="227.079" cy="315.727" r="7.089"/>
	<path fill="#231F20" d="M227.078,309.768c3.285,0,5.959,2.674,5.959,5.959c0,3.283-2.674,5.955-5.959,5.955
		c-3.284,0-5.957-2.672-5.957-5.955C221.121,312.441,223.794,309.768,227.078,309.768 M227.078,308.637
		c-3.914,0-7.088,3.176-7.088,7.09c0,3.916,3.174,7.086,7.088,7.086c3.916,0,7.09-3.17,7.09-7.086
		C234.168,311.812,230.994,308.637,227.078,308.637L227.078,308.637z"/>
</g>
<g>
	<circle fill="#FFFFFF" cx="275.416" cy="324.705" r="7.088"/>
	<path fill="#231F20" d="M275.418,318.746c3.283,0,5.955,2.674,5.955,5.959c0,3.284-2.672,5.957-5.955,5.957
		c-3.285,0-5.959-2.673-5.959-5.957C269.459,321.42,272.133,318.746,275.418,318.746 M275.418,317.615
		c-3.916,0-7.09,3.174-7.09,7.09s3.174,7.088,7.09,7.088c3.913,0,7.086-3.172,7.086-7.088S279.331,317.615,275.418,317.615
		L275.418,317.615z"/>
</g>
<g>
	<path fill="#FFFFFF" d="M237.567,350.255c0,3.914-3.176,7.086-7.091,7.086c-3.914,0-7.087-3.172-7.087-7.086
		c0-3.918,3.173-7.09,7.087-7.09C234.392,343.165,237.567,346.337,237.567,350.255z"/>
	<path fill="#231F20" d="M230.477,344.296c3.286,0,5.96,2.674,5.96,5.959c0,3.283-2.674,5.955-5.96,5.955
		c-3.284,0-5.956-2.672-5.956-5.955C224.521,346.97,227.192,344.296,230.477,344.296 M230.477,343.165
		c-3.914,0-7.087,3.172-7.087,7.09c0,3.914,3.173,7.086,7.087,7.086c3.915,0,7.091-3.172,7.091-7.086
		C237.567,346.337,234.392,343.165,230.477,343.165L230.477,343.165z"/>
</g>
<g>
	<path fill="#FFFFFF" d="M242.664,384.783c0,3.914-3.173,7.086-7.09,7.086c-3.915,0-7.088-3.172-7.088-7.086
		c0-3.918,3.173-7.09,7.088-7.09C239.491,377.693,242.664,380.865,242.664,384.783z"/>
	<path fill="#231F20" d="M235.574,378.824c3.285,0,5.959,2.674,5.959,5.959c0,3.283-2.674,5.955-5.959,5.955
		c-3.284,0-5.957-2.672-5.957-5.955C229.617,381.498,232.29,378.824,235.574,378.824 M235.574,377.693
		c-3.915,0-7.088,3.172-7.088,7.09c0,3.914,3.173,7.086,7.088,7.086c3.917,0,7.09-3.172,7.09-7.086
		C242.664,380.865,239.491,377.693,235.574,377.693L235.574,377.693z"/>
</g>
<g>
	<path fill="#FFFFFF" d="M248.324,419.313c0,3.914-3.173,7.086-7.09,7.086c-3.912,0-7.087-3.172-7.087-7.086
		c0-3.918,3.175-7.092,7.087-7.092C245.151,412.222,248.324,415.396,248.324,419.313z"/>
	<path fill="#231F20" d="M241.234,413.314c3.307,0,5.997,2.691,5.997,5.999c0,3.305-2.69,5.993-5.997,5.993
		c-3.305,0-5.994-2.688-5.994-5.993C235.24,416.006,237.93,413.314,241.234,413.314 M241.234,412.222
		c-3.912,0-7.087,3.174-7.087,7.092c0,3.914,3.175,7.086,7.087,7.086c3.917,0,7.09-3.172,7.09-7.086
		C248.324,415.396,245.151,412.222,241.234,412.222L241.234,412.222z"/>
</g>
<g>
	<path fill="#FFFFFF" d="M253.99,453.842c0,3.914-3.174,7.086-7.093,7.086c-3.912,0-7.085-3.172-7.085-7.086
		c0-3.918,3.173-7.092,7.085-7.092C250.816,446.75,253.99,449.924,253.99,453.842z"/>
	<path fill="#231F20" d="M246.897,447.881c3.287,0,5.962,2.674,5.962,5.961c0,3.283-2.675,5.955-5.962,5.955
		c-3.283,0-5.954-2.672-5.954-5.955C240.943,450.555,243.614,447.881,246.897,447.881 M246.897,446.75
		c-3.912,0-7.085,3.174-7.085,7.092c0,3.914,3.173,7.086,7.085,7.086c3.919,0,7.093-3.172,7.093-7.086
		C253.99,449.924,250.816,446.75,246.897,446.75L246.897,446.75z"/>
</g>
<g>
	<circle fill="#FFFFFF" cx="135.651" cy="74.781" r="7.088"/>
	<path fill="#231F20" d="M135.648,68.823c3.286,0,5.959,2.673,5.959,5.958c0,3.285-2.673,5.957-5.959,5.957
		c-3.283,0-5.955-2.672-5.955-5.957C129.694,71.496,132.365,68.823,135.648,68.823 M135.648,67.691c-3.914,0-7.086,3.175-7.086,7.09
		s3.172,7.088,7.086,7.088c3.917,0,7.091-3.173,7.091-7.088S139.565,67.691,135.648,67.691L135.648,67.691z"/>
</g>
<g>
	<g>
		<path fill="#FFFFFF" d="M141.742,23.265c5.874,0,10.634-4.759,10.636-10.632C152.376,6.761,147.616,2,141.742,2
			c-5.872,0-10.632,4.761-10.631,10.632C131.111,18.505,135.87,23.265,141.742,23.265L141.742,23.265z"/>
		<path fill="#231F20" d="M141.742,3.114c5.249,0,9.521,4.27,9.522,9.518c-0.001,5.249-4.273,9.519-9.522,9.519
			c-5.248,0-9.517-4.27-9.517-9.519c0-2.542,0.989-4.933,2.787-6.73C136.81,4.104,139.2,3.114,141.742,3.114 M141.742,2
			c-5.872,0-10.632,4.761-10.631,10.632c0,5.873,4.759,10.632,10.631,10.632c5.874,0,10.634-4.759,10.636-10.632
			C152.376,6.761,147.616,2,141.742,2L141.742,2z"/>
	</g>
	<polygon fill="#231F20" points="142.969,19.208 142.969,8.226 145.787,8.226 145.787,6.06 137.7,6.06 137.7,8.226 140.519,8.226 
		140.519,19.208 142.969,19.208 	"/>
</g>
<g>
	<g>
		<path fill="#FFFFFF" d="M251.424,498c5.874,0,10.632-4.762,10.635-10.633c-0.003-5.873-4.761-10.633-10.635-10.633
			s-10.634,4.76-10.632,10.633C240.792,493.238,245.55,498,251.424,498L251.424,498z"/>
		<path fill="#231F20" d="M251.424,477.848c5.247,0,9.519,4.271,9.521,9.519c-0.003,5.25-4.274,9.521-9.521,9.521
			c-5.248,0-9.519-4.271-9.519-9.52c-0.001-2.543,0.989-4.934,2.786-6.731C246.489,478.838,248.88,477.848,251.424,477.848
			 M251.424,476.734c-5.874,0-10.634,4.76-10.632,10.633c0,5.871,4.758,10.633,10.632,10.633s10.632-4.762,10.635-10.633
			C262.056,481.494,257.298,476.734,251.424,476.734L251.424,476.734z"/>
	</g>
	<polygon fill="#231F20" points="252.648,493.941 252.648,482.959 255.468,482.959 255.468,480.795 247.379,480.795 
		247.379,482.959 250.198,482.959 250.198,493.941 252.648,493.941 	"/>
</g>
<g>
	<g>
		<path d="M33.224,276.902l3.683,9.844h0.053l3.691-9.844h2.769v12.797h-2.136v-4.359l0.211-5.545l-0.053-0.01l-3.797,9.914h-1.433
			l-3.779-9.887l-0.053,0.008l0.211,5.52v4.359h-2.136v-12.797H33.224z"/>
		<path d="M48.249,289.699h-2.136v-12.797h2.136V289.699z"/>
		<path d="M50.947,289.699v-12.797h4.148c1.623,0,2.942,0.508,3.959,1.521s1.525,2.316,1.525,3.91v1.943
			c0,1.6-0.509,2.902-1.525,3.91s-2.336,1.512-3.959,1.512H50.947z M53.083,278.617v9.369h1.951c1.061,0,1.894-0.346,2.5-1.037
			c0.606-0.69,0.91-1.583,0.91-2.678v-1.958c0-1.083-0.304-1.97-0.91-2.661c-0.606-0.69-1.439-1.035-2.5-1.035H53.083z"/>
		<path d="M62.685,289.699v-12.797h4.148c1.623,0,2.942,0.508,3.959,1.521s1.525,2.316,1.525,3.91v1.943
			c0,1.6-0.509,2.902-1.525,3.91s-2.336,1.512-3.959,1.512H62.685z M64.82,278.617v9.369h1.951c1.061,0,1.894-0.346,2.5-1.037
			c0.606-0.69,0.91-1.583,0.91-2.678v-1.958c0-1.083-0.304-1.97-0.91-2.661c-0.606-0.69-1.439-1.035-2.5-1.035H64.82z"/>
		<path d="M76.557,287.986h5.88v1.713h-8.016v-12.797h2.136V287.986z"/>
		<path d="M91.906,283.943h-5.599v4.043h6.495v1.713h-8.631v-12.797h8.569v1.715h-6.434v3.611h5.599V283.943z"/>
		<path d="M94.586,289.699v-12.797h4.254c1.418,0,2.525,0.292,3.322,0.875s1.195,1.455,1.195,2.615c0,0.58-0.167,1.098-0.501,1.555
			s-0.797,0.797-1.389,1.02c0.762,0.17,1.348,0.537,1.758,1.1s0.615,1.215,0.615,1.959c0,1.201-0.393,2.114-1.178,2.738
			s-1.869,0.936-3.252,0.936H94.586z M96.722,282.291h2.355c0.662,0,1.185-0.157,1.568-0.471s0.576-0.758,0.576-1.332
			c0-0.633-0.202-1.103-0.606-1.41s-0.996-0.461-1.775-0.461h-2.118V282.291z M96.722,283.881v4.105h2.689
			c0.738,0,1.307-0.168,1.705-0.505c0.398-0.336,0.598-0.823,0.598-1.46c0-0.678-0.167-1.205-0.501-1.579s-0.855-0.562-1.564-0.562
			H96.722z"/>
		<path d="M115.682,276.902v8.578c0,1.418-0.463,2.507-1.389,3.266s-2.136,1.139-3.63,1.139c-1.465,0-2.651-0.381-3.56-1.143
			s-1.362-1.85-1.362-3.262v-8.578h2.136v8.572c0,0.896,0.252,1.568,0.756,2.02s1.181,0.676,2.03,0.676
			c0.879,0,1.579-0.225,2.101-0.676s0.782-1.124,0.782-2.02v-8.572H115.682z"/>
		<path d="M120.305,284.391v5.309h-2.136v-12.797h4.729c1.43,0,2.534,0.322,3.313,0.967s1.169,1.564,1.169,2.76
			c0,0.662-0.172,1.232-0.515,1.71s-0.842,0.86-1.498,1.147c0.721,0.229,1.239,0.602,1.556,1.12s0.475,1.155,0.475,1.911v1.064
			c0,0.375,0.047,0.74,0.141,1.098s0.252,0.631,0.475,0.818v0.201h-2.197c-0.234-0.193-0.386-0.498-0.453-0.914
			s-0.101-0.822-0.101-1.221v-1.029c0-0.656-0.188-1.178-0.562-1.564s-0.891-0.58-1.547-0.58H120.305z M120.305,282.678h2.479
			c0.855,0,1.479-0.164,1.872-0.492s0.589-0.83,0.589-1.504c0-0.645-0.193-1.149-0.58-1.516s-0.976-0.549-1.767-0.549h-2.593
			V282.678z"/>
		<path d="M133.81,283.125l3.094-6.223h2.382l-4.438,8.307v4.49h-2.127v-4.605l-4.368-8.191h2.382L133.81,283.125z"/>
	</g>
</g>
<g>
	<g>
		<path d="M16.016,17.72V4.923h4.254c1.418,0,2.525,0.292,3.322,0.875s1.195,1.455,1.195,2.615c0,0.58-0.167,1.099-0.501,1.556
			s-0.797,0.797-1.389,1.02c0.762,0.17,1.348,0.536,1.758,1.099s0.615,1.216,0.615,1.96c0,1.201-0.393,2.114-1.178,2.738
			s-1.869,0.936-3.252,0.936H16.016z M18.151,10.311h2.355c0.662,0,1.185-0.157,1.568-0.47s0.576-0.757,0.576-1.332
			c0-0.633-0.202-1.103-0.606-1.411s-0.996-0.461-1.775-0.461h-2.118V10.311z M18.151,11.901v4.104h2.689
			c0.738,0,1.307-0.168,1.705-0.504c0.398-0.336,0.598-0.823,0.598-1.46c0-0.678-0.167-1.205-0.501-1.579
			c-0.334-0.374-0.855-0.561-1.564-0.561H18.151z"/>
		<path d="M37.111,4.923v8.578c0,1.418-0.463,2.506-1.389,3.265s-2.136,1.138-3.63,1.138c-1.465,0-2.651-0.381-3.56-1.143
			s-1.362-1.849-1.362-3.261V4.923h2.136v8.571c0,0.896,0.252,1.569,0.756,2.02s1.181,0.676,2.03,0.676
			c0.879,0,1.579-0.226,2.101-0.676s0.782-1.124,0.782-2.02V4.923H37.111z"/>
		<path d="M41.734,12.411v5.309h-2.136V4.923h4.729c1.43,0,2.534,0.322,3.313,0.967s1.169,1.564,1.169,2.76
			c0,0.662-0.172,1.232-0.515,1.709s-0.842,0.86-1.498,1.147c0.721,0.229,1.239,0.602,1.556,1.121s0.475,1.156,0.475,1.912v1.063
			c0,0.375,0.047,0.741,0.141,1.099s0.252,0.63,0.475,0.817v0.202h-2.197c-0.234-0.193-0.386-0.498-0.453-0.914
			s-0.101-0.823-0.101-1.222v-1.028c0-0.656-0.188-1.178-0.562-1.564s-0.891-0.58-1.547-0.58H41.734z M41.734,10.697h2.479
			c0.855,0,1.479-0.164,1.872-0.492s0.589-0.829,0.589-1.503c0-0.645-0.193-1.15-0.58-1.516s-0.976-0.549-1.767-0.549h-2.593V10.697
			z"/>
		<path d="M53.492,16.006h5.88v1.714h-8.016V4.923h2.136V16.006z"/>
		<path d="M63.303,17.72h-2.136V4.923h2.136V17.72z"/>
		<path d="M75.994,17.72h-2.127l-5.678-9.343l-0.053,0.018v9.325h-2.136V4.923h2.136l5.678,9.334l0.053-0.018V4.923h2.127V17.72z"/>
		<path d="M88.207,15.988c-0.34,0.486-0.898,0.927-1.675,1.323s-1.773,0.593-2.992,0.593c-1.541,0-2.81-0.488-3.806-1.463
			s-1.494-2.237-1.494-3.784V9.985c0-1.547,0.47-2.808,1.41-3.784s2.155-1.463,3.644-1.463c1.506,0,2.676,0.371,3.511,1.112
			s1.262,1.707,1.279,2.896l-0.018,0.053h-2.021c-0.047-0.703-0.298-1.27-0.752-1.701s-1.111-0.646-1.973-0.646
			c-0.885,0-1.599,0.331-2.141,0.992c-0.542,0.662-0.812,1.502-0.812,2.521v2.687c0,1.031,0.294,1.878,0.883,2.542
			s1.353,0.997,2.29,0.997c0.668,0,1.21-0.077,1.626-0.232c0.416-0.155,0.718-0.337,0.905-0.548v-2.595h-2.54v-1.6h4.676V15.988z"/>
		<path d="M99.418,6.637h-3.867V17.72h-2.136V6.637h-3.867V4.923h9.87V6.637z"/>
		<path d="M110.889,12.473c0,1.564-0.491,2.861-1.473,3.889s-2.254,1.542-3.818,1.542c-1.535,0-2.782-0.514-3.74-1.542
			s-1.437-2.325-1.437-3.889V10.17c0-1.559,0.479-2.854,1.437-3.885s2.202-1.547,3.731-1.547c1.564,0,2.839,0.516,3.823,1.547
			s1.477,2.326,1.477,3.885V12.473z M108.762,10.152c0-1.066-0.286-1.942-0.857-2.628s-1.343-1.028-2.315-1.028
			c-0.938,0-1.679,0.343-2.224,1.028s-0.817,1.562-0.817,2.628v2.32c0,1.078,0.272,1.961,0.817,2.65s1.289,1.033,2.232,1.033
			c0.979,0,1.75-0.343,2.315-1.028s0.849-1.57,0.849-2.654V10.152z"/>
		<path d="M123.097,17.72h-2.127l-5.678-9.343l-0.053,0.018v9.325h-2.136V4.923h2.136l5.678,9.334l0.053-0.018V4.923h2.127V17.72z"
			/>
	</g>
</g>
<g>
	<g>
		<path d="M56.365,40.743c0-0.421-0.158-0.773-0.476-1.057s-0.88-0.523-1.688-0.716c-0.978-0.233-1.74-0.577-2.288-1.031
			s-0.822-1.024-0.822-1.712c0-0.721,0.295-1.323,0.886-1.807c0.59-0.484,1.354-0.726,2.294-0.726c1.012,0,1.816,0.277,2.416,0.832
			c0.599,0.554,0.888,1.198,0.866,1.93l-0.013,0.038h-1.193c0-0.542-0.179-0.979-0.536-1.314c-0.358-0.334-0.871-0.501-1.54-0.501
			c-0.622,0-1.099,0.141-1.431,0.422c-0.333,0.282-0.499,0.649-0.499,1.102c0,0.402,0.181,0.737,0.54,1.006
			c0.359,0.269,0.943,0.505,1.752,0.708c0.974,0.241,1.714,0.597,2.222,1.066s0.762,1.052,0.762,1.746
			c0,0.745-0.305,1.344-0.914,1.796s-1.405,0.679-2.387,0.679c-0.923,0-1.738-0.25-2.447-0.752
			c-0.709-0.501-1.053-1.171-1.031-2.009l0.013-0.038h1.193c0,0.592,0.218,1.043,0.653,1.352c0.437,0.309,0.976,0.463,1.619,0.463
			c0.631,0,1.13-0.132,1.498-0.397S56.365,41.197,56.365,40.743z"/>
		<path d="M66.311,43.07h-1.25v-4.082h-4.488v4.082h-1.25v-9.242h1.25v4.177h4.488v-4.177h1.25V43.07z"/>
		<path d="M73.918,38.786h-4.234v3.301h4.882v0.984h-6.132v-9.242h6.062v0.984h-4.812v2.99h4.234V38.786z"/>
		<path d="M77.27,42.086h4.374v0.984H76.02v-9.242h1.25V42.086z"/>
		<path d="M83.063,43.07v-9.242h3.015c0.965,0,1.721,0.208,2.267,0.625c0.546,0.417,0.818,1.042,0.818,1.876
			c0,0.411-0.131,0.777-0.394,1.102c-0.262,0.323-0.606,0.563-1.034,0.72c0.559,0.119,0.997,0.392,1.317,0.819
			c0.319,0.427,0.479,0.925,0.479,1.492c0,0.846-0.273,1.493-0.821,1.939c-0.549,0.447-1.292,0.67-2.231,0.67H83.063z
			 M84.313,37.757h2.025c0.466,0,0.844-0.128,1.136-0.384c0.292-0.256,0.438-0.612,0.438-1.069c0-0.5-0.158-0.873-0.473-1.12
			c-0.315-0.248-0.77-0.372-1.362-0.372h-1.765V37.757z M84.313,38.741v3.345h2.165c0.567,0,1.009-0.14,1.326-0.42
			s0.477-0.678,0.477-1.192c0-0.54-0.133-0.963-0.396-1.271c-0.265-0.308-0.672-0.462-1.223-0.462H84.313z"/>
		<path d="M98.031,33.828v6.265c0,1.007-0.327,1.777-0.98,2.311c-0.654,0.533-1.508,0.8-2.562,0.8c-1.016,0-1.84-0.268-2.473-0.803
			c-0.633-0.535-0.949-1.304-0.949-2.307v-6.265h1.251v6.26c0,0.698,0.199,1.228,0.597,1.589c0.397,0.362,0.923,0.542,1.574,0.542
			c0.686,0,1.238-0.181,1.66-0.542c0.421-0.361,0.631-0.891,0.631-1.589v-6.26H98.031z"/>
		<path d="M101.27,39.065v4.005h-1.25v-9.236h3.345c1.012,0,1.784,0.224,2.317,0.673s0.8,1.1,0.8,1.955
			c0,0.474-0.124,0.887-0.371,1.238c-0.248,0.351-0.608,0.63-1.083,0.838c0.508,0.165,0.873,0.433,1.096,0.803
			c0.222,0.371,0.333,0.829,0.333,1.375v0.87c0,0.288,0.031,0.546,0.095,0.774s0.174,0.415,0.33,0.559v0.152h-1.288
			c-0.165-0.144-0.271-0.355-0.317-0.635s-0.07-0.567-0.07-0.863v-0.844c0-0.5-0.146-0.901-0.438-1.206s-0.684-0.457-1.175-0.457
			H101.27z M101.27,38.081h1.968c0.707,0,1.216-0.134,1.527-0.402c0.311-0.268,0.466-0.677,0.466-1.226
			c0-0.52-0.151-0.922-0.453-1.207c-0.303-0.285-0.773-0.428-1.413-0.428h-2.095V38.081z"/>
		<path d="M115.465,43.07h-1.25l-4.45-7.147l-0.038,0.013v7.135h-1.25v-9.242h1.25l4.45,7.135l0.038-0.013v-7.122h1.25V43.07z"/>
		<path d="M123.073,38.786h-4.234v3.301h4.882v0.984h-6.132v-9.242h6.062v0.984h-4.812v2.99h4.234V38.786z"/>
	</g>
</g>
<g>
	<g>
		<path d="M54.979,75.637l0.013,0.038c0.018,0.868-0.287,1.594-0.914,2.18c-0.626,0.586-1.453,0.879-2.481,0.879
			c-1.045,0-1.897-0.37-2.555-1.111c-0.658-0.741-0.987-1.68-0.987-2.818v-1.644c0-1.138,0.329-2.079,0.987-2.822
			c0.657-0.742,1.51-1.114,2.555-1.114s1.877,0.278,2.494,0.834c0.618,0.557,0.919,1.294,0.901,2.212l-0.013,0.038h-1.199
			c0-0.647-0.19-1.16-0.571-1.536s-0.918-0.565-1.612-0.565c-0.698,0-1.255,0.281-1.67,0.844c-0.414,0.562-0.622,1.26-0.622,2.093
			v1.655c0,0.841,0.208,1.543,0.622,2.105c0.415,0.562,0.972,0.844,1.67,0.844c0.694,0,1.231-0.188,1.612-0.562
			c0.381-0.375,0.571-0.892,0.571-1.552H54.979z"/>
		<path d="M63.578,78.601h-1.25V74.52H57.84v4.082h-1.25v-9.242h1.25v4.177h4.488v-4.177h1.25V78.601z"/>
		<path d="M70.958,76.221h-3.872l-0.876,2.38h-1.275l3.573-9.242h1.073l3.517,9.242h-1.276L70.958,76.221z M67.474,75.173h3.11
			l-1.523-4.208h-0.038L67.474,75.173z"/>
		<path d="M75.705,74.596v4.005h-1.25v-9.236H77.8c1.012,0,1.784,0.224,2.317,0.673s0.8,1.1,0.8,1.955
			c0,0.474-0.124,0.887-0.371,1.238c-0.248,0.351-0.608,0.63-1.083,0.838c0.508,0.165,0.873,0.433,1.096,0.803
			c0.222,0.371,0.333,0.829,0.333,1.375v0.87c0,0.288,0.031,0.546,0.095,0.774s0.174,0.415,0.33,0.559v0.152h-1.288
			c-0.165-0.144-0.271-0.355-0.317-0.635s-0.07-0.567-0.07-0.863v-0.844c0-0.5-0.146-0.901-0.438-1.206s-0.684-0.457-1.175-0.457
			H75.705z M75.705,73.612h1.968c0.707,0,1.216-0.134,1.527-0.402c0.311-0.268,0.466-0.677,0.466-1.226
			c0-0.52-0.151-0.922-0.453-1.207c-0.303-0.285-0.773-0.428-1.413-0.428h-2.095V73.612z"/>
		<path d="M84.162,77.617h4.374v0.984h-5.624v-9.242h1.25V77.617z"/>
		<path d="M96.735,74.805c0,1.13-0.351,2.067-1.051,2.812s-1.609,1.117-2.727,1.117c-1.079,0-1.956-0.373-2.631-1.117
			s-1.013-1.682-1.013-2.812v-1.644c0-1.125,0.338-2.063,1.013-2.812s1.552-1.124,2.631-1.124c1.117,0,2.026,0.374,2.727,1.121
			c0.7,0.747,1.051,1.685,1.051,2.815V74.805z M95.484,73.148c0-0.846-0.229-1.541-0.686-2.082s-1.07-0.812-1.841-0.812
			c-0.728,0-1.309,0.271-1.742,0.812s-0.65,1.236-0.65,2.082v1.657c0,0.855,0.217,1.553,0.65,2.095s1.015,0.812,1.742,0.812
			c0.774,0,1.39-0.27,1.845-0.81c0.454-0.539,0.682-1.239,0.682-2.098V73.148z"/>
		<path d="M104.668,70.343h-2.971v8.258h-1.251v-8.258h-2.964v-0.984h7.186V70.343z"/>
		<path d="M112.791,70.343h-2.971v8.258h-1.251v-8.258h-2.964v-0.984h7.186V70.343z"/>
		<path d="M119.678,74.316h-4.234v3.301h4.882v0.984h-6.132v-9.242h6.062v0.984h-4.812v2.99h4.234V74.316z"/>
	</g>
</g>
<g>
	<g>
		<path d="M206.774,24.474c0-0.421-0.158-0.773-0.476-1.057s-0.88-0.523-1.688-0.716c-0.978-0.233-1.74-0.577-2.288-1.031
			s-0.822-1.024-0.822-1.712c0-0.721,0.295-1.323,0.886-1.807c0.59-0.484,1.354-0.726,2.294-0.726c1.012,0,1.816,0.277,2.416,0.832
			c0.599,0.554,0.888,1.198,0.866,1.93l-0.013,0.038h-1.193c0-0.542-0.179-0.979-0.536-1.314c-0.358-0.334-0.871-0.501-1.54-0.501
			c-0.622,0-1.099,0.141-1.431,0.422c-0.333,0.282-0.499,0.649-0.499,1.102c0,0.402,0.181,0.737,0.54,1.006
			c0.359,0.269,0.943,0.505,1.752,0.708c0.974,0.241,1.714,0.597,2.222,1.066s0.762,1.052,0.762,1.746
			c0,0.745-0.305,1.344-0.914,1.796s-1.405,0.679-2.387,0.679c-0.923,0-1.738-0.25-2.447-0.752
			c-0.709-0.501-1.053-1.171-1.031-2.009l0.013-0.038h1.193c0,0.592,0.218,1.043,0.653,1.352c0.437,0.309,0.976,0.463,1.619,0.463
			c0.631,0,1.13-0.132,1.498-0.397S206.774,24.928,206.774,24.474z"/>
		<path d="M216.823,23.005c0,1.13-0.351,2.067-1.051,2.812s-1.609,1.117-2.727,1.117c-1.079,0-1.956-0.373-2.631-1.117
			s-1.013-1.682-1.013-2.812v-1.644c0-1.125,0.338-2.063,1.013-2.812s1.552-1.124,2.631-1.124c1.117,0,2.026,0.374,2.727,1.121
			c0.7,0.747,1.051,1.685,1.051,2.815V23.005z M215.572,21.349c0-0.846-0.229-1.541-0.686-2.082s-1.07-0.812-1.841-0.812
			c-0.728,0-1.309,0.271-1.742,0.812s-0.65,1.236-0.65,2.082v1.657c0,0.855,0.217,1.553,0.65,2.095s1.015,0.812,1.742,0.812
			c0.774,0,1.39-0.27,1.845-0.81c0.454-0.539,0.682-1.239,0.682-2.098V21.349z"/>
		<path d="M225.426,17.559v6.265c0,1.007-0.327,1.777-0.98,2.311c-0.654,0.533-1.508,0.8-2.562,0.8c-1.016,0-1.84-0.268-2.473-0.803
			c-0.633-0.535-0.949-1.304-0.949-2.307v-6.265h1.251v6.26c0,0.698,0.199,1.228,0.597,1.589c0.397,0.362,0.923,0.542,1.574,0.542
			c0.686,0,1.238-0.181,1.66-0.542c0.421-0.361,0.631-0.891,0.631-1.589v-6.26H225.426z"/>
		<path d="M233.891,18.543h-2.971v8.258h-1.251v-8.258h-2.964v-0.984h7.186V18.543z"/>
		<path d="M242.281,26.801h-1.25V22.72h-4.488v4.082h-1.25v-9.242h1.25v4.177h4.488v-4.177h1.25V26.801z"/>
		<path d="M247.797,26.801v-9.242h3.015c0.965,0,1.721,0.208,2.267,0.625c0.546,0.417,0.818,1.042,0.818,1.876
			c0,0.411-0.131,0.777-0.394,1.102c-0.262,0.323-0.606,0.563-1.034,0.72c0.559,0.119,0.997,0.392,1.317,0.819
			c0.319,0.427,0.479,0.925,0.479,1.492c0,0.846-0.273,1.493-0.821,1.939c-0.549,0.447-1.292,0.67-2.231,0.67H247.797z
			 M249.047,21.488h2.025c0.466,0,0.844-0.128,1.136-0.384c0.292-0.256,0.438-0.612,0.438-1.069c0-0.5-0.158-0.873-0.473-1.12
			c-0.315-0.248-0.77-0.372-1.362-0.372h-1.765V21.488z M249.047,22.472v3.345h2.165c0.567,0,1.009-0.14,1.326-0.42
			s0.477-0.678,0.477-1.192c0-0.54-0.133-0.963-0.396-1.271c-0.265-0.308-0.672-0.462-1.223-0.462H249.047z"/>
		<path d="M262.765,17.559v6.265c0,1.007-0.327,1.777-0.98,2.311c-0.654,0.533-1.508,0.8-2.562,0.8c-1.016,0-1.84-0.268-2.473-0.803
			c-0.633-0.535-0.949-1.304-0.949-2.307v-6.265h1.251v6.26c0,0.698,0.199,1.228,0.597,1.589c0.397,0.362,0.923,0.542,1.574,0.542
			c0.686,0,1.238-0.181,1.66-0.542c0.421-0.361,0.631-0.891,0.631-1.589v-6.26H262.765z"/>
		<path d="M266.003,22.796v4.005h-1.25v-9.236h3.345c1.012,0,1.784,0.224,2.317,0.673s0.8,1.1,0.8,1.955
			c0,0.474-0.124,0.887-0.371,1.238c-0.248,0.351-0.608,0.63-1.083,0.838c0.508,0.165,0.873,0.433,1.096,0.803
			c0.222,0.371,0.333,0.829,0.333,1.375v0.87c0,0.288,0.031,0.546,0.095,0.774s0.174,0.415,0.33,0.559v0.152h-1.288
			c-0.165-0.144-0.271-0.355-0.317-0.635s-0.07-0.567-0.07-0.863v-0.844c0-0.5-0.146-0.901-0.438-1.206s-0.684-0.457-1.175-0.457
			H266.003z M266.003,21.812h1.968c0.707,0,1.216-0.134,1.527-0.402c0.311-0.268,0.466-0.677,0.466-1.226
			c0-0.52-0.151-0.922-0.453-1.207c-0.303-0.285-0.773-0.428-1.413-0.428h-2.095V21.812z"/>
		<path d="M274.46,25.817h4.374v0.984h-5.624v-9.242h1.25V25.817z"/>
		<path d="M281.542,26.801h-1.257v-9.242h1.257V26.801z"/>
		<path d="M290.688,26.801h-1.25l-4.45-7.147l-0.038,0.013v7.135h-1.25v-9.242h1.25l4.45,7.135l0.038-0.013v-7.122h1.25V26.801z"/>
		<path d="M299.569,25.576c-0.22,0.338-0.602,0.649-1.146,0.933s-1.247,0.425-2.11,0.425c-1.104,0-2.018-0.354-2.739-1.06
			s-1.082-1.621-1.082-2.742v-1.904c0-1.122,0.336-2.036,1.009-2.742s1.541-1.06,2.603-1.06c1.059,0,1.89,0.26,2.495,0.781
			s0.914,1.191,0.927,2.012l-0.013,0.038h-1.193c-0.038-0.538-0.242-0.979-0.612-1.327c-0.371-0.347-0.905-0.521-1.604-0.521
			c-0.706,0-1.275,0.264-1.707,0.793c-0.432,0.528-0.647,1.199-0.647,2.01v1.916c0,0.82,0.241,1.496,0.724,2.026
			s1.096,0.796,1.841,0.796c0.524,0,0.954-0.07,1.288-0.209c0.335-0.139,0.574-0.298,0.718-0.475V23.17h-2.025v-0.984h3.275V25.576z
			"/>
		<path d="M307.851,18.543h-2.971v8.258h-1.251v-8.258h-2.964v-0.984h7.186V18.543z"/>
		<path d="M316.032,23.005c0,1.13-0.351,2.067-1.051,2.812s-1.609,1.117-2.727,1.117c-1.079,0-1.956-0.373-2.631-1.117
			s-1.013-1.682-1.013-2.812v-1.644c0-1.125,0.338-2.063,1.013-2.812s1.552-1.124,2.631-1.124c1.117,0,2.026,0.374,2.727,1.121
			c0.7,0.747,1.051,1.685,1.051,2.815V23.005z M314.781,21.349c0-0.846-0.229-1.541-0.686-2.082s-1.07-0.812-1.841-0.812
			c-0.728,0-1.309,0.271-1.742,0.812s-0.65,1.236-0.65,2.082v1.657c0,0.855,0.217,1.553,0.65,2.095s1.015,0.812,1.742,0.812
			c0.774,0,1.39-0.27,1.845-0.81c0.454-0.539,0.682-1.239,0.682-2.098V21.349z"/>
		<path d="M324.805,26.801h-1.25l-4.45-7.147l-0.038,0.013v7.135h-1.25v-9.242h1.25l4.45,7.135l0.038-0.013v-7.122h1.25V26.801z"/>
	</g>
</g>
<g>
	<g>
		<path d="M36.9,110.487h-4.215v4.088h-1.25v-9.242h6.112v0.984h-4.862v3.187H36.9V110.487z"/>
		<path d="M44.487,110.291h-4.234v3.301h4.882v0.984h-6.132v-9.242h6.062v0.984h-4.812v2.99h4.234V110.291z"/>
		<path d="M47.839,110.57v4.005h-1.25v-9.236h3.345c1.012,0,1.784,0.224,2.317,0.673s0.8,1.1,0.8,1.955
			c0,0.474-0.124,0.887-0.371,1.238c-0.248,0.351-0.608,0.63-1.083,0.838c0.508,0.165,0.873,0.433,1.096,0.803
			c0.222,0.371,0.333,0.829,0.333,1.375v0.87c0,0.288,0.031,0.546,0.095,0.774s0.174,0.415,0.33,0.559v0.152h-1.288
			c-0.165-0.144-0.271-0.355-0.317-0.635s-0.07-0.567-0.07-0.863v-0.844c0-0.5-0.146-0.901-0.438-1.206s-0.684-0.457-1.175-0.457
			H47.839z M47.839,109.586h1.968c0.707,0,1.216-0.134,1.527-0.402c0.311-0.268,0.466-0.677,0.466-1.226
			c0-0.52-0.151-0.922-0.453-1.207c-0.303-0.285-0.773-0.428-1.413-0.428h-2.095V109.586z"/>
		<path d="M56.296,110.57v4.005h-1.25v-9.236h3.345c1.012,0,1.784,0.224,2.317,0.673s0.8,1.1,0.8,1.955
			c0,0.474-0.124,0.887-0.371,1.238c-0.248,0.351-0.608,0.63-1.083,0.838c0.508,0.165,0.873,0.433,1.096,0.803
			c0.222,0.371,0.333,0.829,0.333,1.375v0.87c0,0.288,0.031,0.546,0.095,0.774s0.174,0.415,0.33,0.559v0.152h-1.288
			c-0.165-0.144-0.271-0.355-0.317-0.635s-0.07-0.567-0.07-0.863v-0.844c0-0.5-0.146-0.901-0.438-1.206s-0.684-0.457-1.175-0.457
			H56.296z M56.296,109.586h1.968c0.707,0,1.216-0.134,1.527-0.402c0.311-0.268,0.466-0.677,0.466-1.226
			c0-0.52-0.151-0.922-0.453-1.207c-0.303-0.285-0.773-0.428-1.413-0.428h-2.095V109.586z"/>
		<path d="M64.791,114.575h-1.257v-9.242h1.257V114.575z"/>
		<path d="M71.97,112.248c0-0.421-0.158-0.773-0.476-1.057s-0.88-0.523-1.688-0.716c-0.978-0.233-1.74-0.577-2.288-1.031
			s-0.822-1.024-0.822-1.712c0-0.721,0.295-1.323,0.886-1.807c0.59-0.484,1.354-0.726,2.294-0.726c1.012,0,1.816,0.277,2.416,0.832
			c0.599,0.554,0.888,1.198,0.866,1.93l-0.013,0.038h-1.193c0-0.542-0.179-0.979-0.536-1.314c-0.358-0.334-0.871-0.501-1.54-0.501
			c-0.622,0-1.099,0.141-1.431,0.422c-0.333,0.282-0.499,0.649-0.499,1.102c0,0.402,0.181,0.737,0.54,1.006
			c0.359,0.269,0.943,0.505,1.752,0.708c0.974,0.241,1.714,0.597,2.222,1.066s0.762,1.052,0.762,1.746
			c0,0.745-0.305,1.344-0.914,1.796s-1.405,0.679-2.387,0.679c-0.923,0-1.738-0.25-2.447-0.752
			c-0.709-0.501-1.053-1.171-1.031-2.009l0.013-0.038h1.193c0,0.592,0.218,1.043,0.653,1.352c0.437,0.309,0.976,0.463,1.619,0.463
			c0.631,0,1.13-0.132,1.498-0.397S71.97,112.702,71.97,112.248z"/>
		<path d="M74.926,114.575v-9.242h3.015c0.965,0,1.721,0.208,2.267,0.625c0.546,0.417,0.818,1.042,0.818,1.876
			c0,0.411-0.131,0.777-0.394,1.102c-0.262,0.323-0.606,0.563-1.034,0.72c0.559,0.119,0.997,0.392,1.317,0.819
			c0.319,0.427,0.479,0.925,0.479,1.492c0,0.846-0.273,1.493-0.821,1.939c-0.549,0.447-1.292,0.67-2.231,0.67H74.926z
			 M76.176,109.262h2.025c0.466,0,0.844-0.128,1.136-0.384c0.292-0.256,0.438-0.612,0.438-1.069c0-0.5-0.158-0.873-0.473-1.12
			c-0.315-0.248-0.77-0.372-1.362-0.372h-1.765V109.262z M76.176,110.246v3.345h2.165c0.567,0,1.009-0.14,1.326-0.42
			s0.477-0.678,0.477-1.192c0-0.54-0.133-0.963-0.396-1.271c-0.265-0.308-0.672-0.462-1.223-0.462H76.176z"/>
		<path d="M89.894,105.333v6.265c0,1.007-0.327,1.777-0.98,2.311c-0.654,0.533-1.508,0.8-2.562,0.8c-1.016,0-1.84-0.268-2.473-0.803
			c-0.633-0.535-0.949-1.304-0.949-2.307v-6.265h1.251v6.26c0,0.698,0.199,1.228,0.597,1.589c0.397,0.362,0.923,0.542,1.574,0.542
			c0.686,0,1.238-0.181,1.66-0.542c0.421-0.361,0.631-0.891,0.631-1.589v-6.26H89.894z"/>
		<path d="M93.132,110.57v4.005h-1.25v-9.236h3.345c1.012,0,1.784,0.224,2.317,0.673s0.8,1.1,0.8,1.955
			c0,0.474-0.124,0.887-0.371,1.238c-0.248,0.351-0.608,0.63-1.083,0.838c0.508,0.165,0.873,0.433,1.096,0.803
			c0.222,0.371,0.333,0.829,0.333,1.375v0.87c0,0.288,0.031,0.546,0.095,0.774s0.174,0.415,0.33,0.559v0.152h-1.288
			c-0.165-0.144-0.271-0.355-0.317-0.635s-0.07-0.567-0.07-0.863v-0.844c0-0.5-0.146-0.901-0.438-1.206s-0.684-0.457-1.175-0.457
			H93.132z M93.132,109.586H95.1c0.707,0,1.216-0.134,1.527-0.402c0.311-0.268,0.466-0.677,0.466-1.226
			c0-0.52-0.151-0.922-0.453-1.207c-0.303-0.285-0.773-0.428-1.413-0.428h-2.095V109.586z"/>
		<path d="M107.011,113.35c-0.22,0.338-0.602,0.649-1.146,0.933s-1.247,0.425-2.11,0.425c-1.104,0-2.018-0.354-2.739-1.06
			s-1.082-1.621-1.082-2.742v-1.904c0-1.122,0.336-2.036,1.009-2.742s1.541-1.06,2.603-1.06c1.059,0,1.89,0.26,2.495,0.781
			s0.914,1.191,0.927,2.012l-0.013,0.038h-1.193c-0.038-0.538-0.242-0.979-0.612-1.327c-0.371-0.347-0.905-0.521-1.604-0.521
			c-0.706,0-1.275,0.264-1.707,0.793c-0.432,0.528-0.647,1.199-0.647,2.01v1.916c0,0.82,0.241,1.496,0.724,2.026
			s1.096,0.796,1.841,0.796c0.524,0,0.954-0.07,1.288-0.209c0.335-0.139,0.574-0.298,0.718-0.475v-2.096h-2.025v-0.984h3.275V113.35
			z"/>
		<path d="M115.988,114.575h-1.25v-4.082h-4.488v4.082H109v-9.242h1.25v4.177h4.488v-4.177h1.25V114.575z"/>
	</g>
</g>
<g>
	<g>
		<path d="M295.997,374.79c0-0.53-0.198-0.966-0.594-1.304s-1.094-0.642-2.096-0.91c-1.43-0.375-2.53-0.871-3.301-1.49
			c-0.771-0.617-1.155-1.428-1.155-2.43c0-1.031,0.426-1.881,1.278-2.549s1.953-1.002,3.301-1.002c1.406,0,2.535,0.379,3.388,1.139
			c0.853,0.758,1.265,1.668,1.235,2.729l-0.018,0.053h-2.048c0-0.656-0.223-1.188-0.668-1.596c-0.445-0.406-1.081-0.61-1.907-0.61
			c-0.779,0-1.379,0.169-1.798,0.509c-0.419,0.339-0.628,0.777-0.628,1.315c0,0.485,0.227,0.889,0.681,1.21
			c0.454,0.322,1.206,0.625,2.255,0.912c1.377,0.369,2.423,0.879,3.138,1.529s1.072,1.479,1.072,2.487
			c0,1.066-0.427,1.915-1.279,2.544c-0.853,0.631-1.973,0.945-3.361,0.945c-1.336,0-2.508-0.355-3.516-1.068
			c-1.008-0.711-1.497-1.683-1.468-2.913l0.018-0.053h2.057c0,0.779,0.27,1.36,0.809,1.745c0.539,0.383,1.239,0.575,2.101,0.575
			c0.791,0,1.406-0.159,1.846-0.477C295.777,375.763,295.997,375.332,295.997,374.79z"/>
		<path d="M310.227,378.087H308.1l-5.678-9.343l-0.053,0.018v9.325h-2.136V365.29h2.136l5.678,9.334l0.053-0.018v-9.316h2.127
			V378.087z"/>
		<path d="M322.905,372.84c0,1.564-0.491,2.861-1.473,3.889c-0.981,1.029-2.254,1.543-3.818,1.543c-1.535,0-2.782-0.514-3.74-1.543
			c-0.958-1.027-1.437-2.324-1.437-3.889v-2.303c0-1.559,0.479-2.854,1.437-3.885s2.202-1.547,3.731-1.547
			c1.564,0,2.839,0.516,3.823,1.547s1.477,2.326,1.477,3.885V372.84z M320.778,370.52c0-1.066-0.286-1.942-0.857-2.628
			s-1.343-1.028-2.315-1.028c-0.938,0-1.679,0.343-2.224,1.028s-0.817,1.562-0.817,2.628v2.32c0,1.078,0.272,1.961,0.817,2.65
			c0.545,0.688,1.289,1.032,2.232,1.032c0.979,0,1.75-0.343,2.315-1.028s0.849-1.57,0.849-2.654V370.52z"/>
		<path d="M328.072,374.677v0.018l0.009-0.044l2.558-9.36h1.705l2.584,9.387l0.009,0.062l0.009-0.088l2.021-9.36h2.101
			l-3.041,12.797h-1.942l-2.558-9.185h-0.053l-2.566,9.185h-1.951l-3.032-12.797h2.101L328.072,374.677z"/>
		<path d="M345.378,378.087V365.29h4.254c1.418,0,2.525,0.292,3.322,0.874c0.797,0.584,1.195,1.455,1.195,2.615
			c0,0.58-0.167,1.099-0.501,1.556s-0.797,0.797-1.389,1.02c0.762,0.17,1.348,0.536,1.758,1.099s0.615,1.216,0.615,1.96
			c0,1.201-0.393,2.114-1.178,2.737c-0.785,0.625-1.869,0.937-3.252,0.937H345.378z M347.514,370.678h2.355
			c0.662,0,1.185-0.156,1.568-0.471c0.384-0.312,0.576-0.757,0.576-1.331c0-0.633-0.202-1.103-0.606-1.411
			c-0.404-0.307-0.996-0.461-1.775-0.461h-2.118V370.678z M347.514,372.269v4.104h2.689c0.738,0,1.307-0.168,1.705-0.504
			s0.598-0.823,0.598-1.461c0-0.678-0.167-1.204-0.501-1.578c-0.334-0.375-0.855-0.562-1.564-0.562H347.514z"/>
		<path d="M366.838,372.84c0,1.564-0.491,2.861-1.473,3.889c-0.981,1.029-2.254,1.543-3.818,1.543c-1.535,0-2.782-0.514-3.74-1.543
			c-0.958-1.027-1.437-2.324-1.437-3.889v-2.303c0-1.559,0.479-2.854,1.437-3.885s2.202-1.547,3.731-1.547
			c1.564,0,2.839,0.516,3.823,1.547s1.477,2.326,1.477,3.885V372.84z M364.711,370.52c0-1.066-0.286-1.942-0.857-2.628
			s-1.343-1.028-2.315-1.028c-0.938,0-1.679,0.343-2.224,1.028s-0.817,1.562-0.817,2.628v2.32c0,1.078,0.272,1.961,0.817,2.65
			c0.545,0.688,1.289,1.032,2.232,1.032c0.979,0,1.75-0.343,2.315-1.028s0.849-1.57,0.849-2.654V370.52z"/>
		<path d="M372.006,374.677v0.018l0.009-0.044l2.558-9.36h1.705l2.584,9.387l0.009,0.062l0.009-0.088l2.021-9.36h2.101
			l-3.041,12.797h-1.942l-2.558-9.185h-0.053l-2.566,9.185h-1.951l-3.032-12.797h2.101L372.006,374.677z"/>
		<path d="M386.927,376.373h5.88v1.714h-8.016V365.29h2.136V376.373z"/>
	</g>
</g>
<g>
	<g>
		<path d="M238.597,300.159h-4.234v3.301h4.882v0.983h-6.132v-9.242h6.062v0.984h-4.812v2.99h4.234V300.159z"/>
		<path d="M246.215,302.063h-3.872l-0.876,2.38h-1.275l3.573-9.242h1.073l3.517,9.242h-1.276L246.215,302.063z M242.73,301.016h3.11
			l-1.523-4.208h-0.038L242.73,301.016z"/>
		<path d="M254.64,302.117c0-0.422-0.158-0.773-0.476-1.058s-0.88-0.522-1.688-0.716c-0.978-0.234-1.74-0.577-2.288-1.031
			s-0.822-1.024-0.822-1.712c0-0.721,0.295-1.323,0.886-1.807c0.59-0.483,1.354-0.726,2.294-0.726c1.012,0,1.816,0.277,2.416,0.832
			c0.599,0.554,0.888,1.197,0.866,1.93l-0.013,0.037h-1.193c0-0.541-0.179-0.979-0.536-1.313c-0.358-0.335-0.871-0.501-1.54-0.501
			c-0.622,0-1.099,0.141-1.431,0.422c-0.333,0.281-0.499,0.648-0.499,1.102c0,0.401,0.181,0.736,0.54,1.006
			c0.359,0.269,0.943,0.504,1.752,0.707c0.974,0.242,1.714,0.598,2.222,1.066c0.508,0.471,0.762,1.053,0.762,1.746
			c0,0.744-0.305,1.344-0.914,1.797c-0.609,0.452-1.405,0.679-2.387,0.679c-0.923,0-1.738-0.251-2.447-0.753
			c-0.709-0.5-1.053-1.17-1.031-2.008l0.013-0.039h1.193c0,0.593,0.218,1.043,0.653,1.353c0.437,0.31,0.976,0.464,1.619,0.464
			c0.631,0,1.13-0.133,1.498-0.398C254.456,302.931,254.64,302.57,254.64,302.117z"/>
		<path d="M263.992,296.186h-2.971v8.258h-1.251v-8.258h-2.964v-0.984h7.186V296.186z"/>
		<path d="M270.181,295.201l2.945,7.51h0.038l2.945-7.51h1.6v9.242h-1.251v-3.656l0.127-3.758l-0.031-0.006l-2.996,7.42h-0.832
			l-2.983-7.4l-0.031,0.006l0.12,3.738v3.656h-1.25v-9.242H270.181z"/>
		<path d="M281.125,304.443h-1.257v-9.242h1.257V304.443z"/>
		<path d="M283.284,304.443v-9.242h2.837c1.211,0,2.182,0.371,2.914,1.115c0.732,0.742,1.098,1.701,1.098,2.878v1.263
			c0,1.182-0.365,2.141-1.098,2.879s-1.703,1.107-2.914,1.107H283.284z M284.534,296.186v7.274h1.587
			c0.855,0,1.529-0.281,2.022-0.843c0.492-0.562,0.739-1.283,0.739-2.164v-1.273c0-0.871-0.247-1.588-0.739-2.15
			c-0.493-0.562-1.167-0.844-2.022-0.844H284.534z"/>
		<path d="M291.804,304.443v-9.242h2.837c1.211,0,2.182,0.371,2.914,1.115c0.732,0.742,1.098,1.701,1.098,2.878v1.263
			c0,1.182-0.365,2.141-1.098,2.879s-1.703,1.107-2.914,1.107H291.804z M293.054,296.186v7.274h1.587
			c0.855,0,1.529-0.281,2.022-0.843c0.492-0.562,0.739-1.283,0.739-2.164v-1.273c0-0.871-0.247-1.588-0.739-2.15
			c-0.493-0.562-1.167-0.844-2.022-0.844H293.054z"/>
		<path d="M301.573,303.46h4.374v0.983h-5.624v-9.242h1.25V303.46z"/>
		<path d="M312.852,300.159h-4.234v3.301h4.882v0.983h-6.132v-9.242h6.062v0.984h-4.812v2.99h4.234V300.159z"/>
		<path d="M314.953,304.443v-9.242h3.015c0.965,0,1.721,0.209,2.267,0.625c0.546,0.418,0.818,1.043,0.818,1.877
			c0,0.41-0.131,0.777-0.394,1.102c-0.262,0.322-0.606,0.562-1.034,0.72c0.559,0.118,0.997,0.392,1.317,0.819
			c0.319,0.427,0.479,0.924,0.479,1.491c0,0.847-0.273,1.493-0.821,1.938c-0.549,0.447-1.292,0.67-2.231,0.67H314.953z
			 M316.203,299.131h2.025c0.466,0,0.844-0.128,1.136-0.385c0.292-0.256,0.438-0.611,0.438-1.068c0-0.5-0.158-0.873-0.473-1.121
			c-0.315-0.248-0.77-0.371-1.362-0.371h-1.765V299.131z M316.203,300.115v3.345h2.165c0.567,0,1.009-0.14,1.326-0.421
			c0.317-0.279,0.477-0.678,0.477-1.191c0-0.539-0.133-0.963-0.396-1.271c-0.265-0.308-0.672-0.461-1.223-0.461H316.203z"/>
		<path d="M329.921,295.201v6.266c0,1.008-0.327,1.777-0.98,2.311c-0.654,0.533-1.508,0.8-2.562,0.8
			c-1.016,0-1.84-0.268-2.473-0.804c-0.633-0.535-0.949-1.304-0.949-2.307v-6.266h1.251v6.261c0,0.698,0.199,1.228,0.597,1.589
			s0.923,0.543,1.574,0.543c0.686,0,1.238-0.182,1.66-0.543c0.421-0.361,0.631-0.891,0.631-1.589v-6.261H329.921z"/>
		<path d="M333.159,300.438v4.005h-1.25v-9.235h3.345c1.012,0,1.784,0.224,2.317,0.673s0.8,1.1,0.8,1.955
			c0,0.475-0.124,0.887-0.371,1.238c-0.248,0.351-0.608,0.63-1.083,0.838c0.508,0.164,0.873,0.432,1.096,0.803
			c0.222,0.37,0.333,0.828,0.333,1.374v0.87c0,0.287,0.031,0.545,0.095,0.773s0.174,0.415,0.33,0.559v0.152h-1.288
			c-0.165-0.144-0.271-0.355-0.317-0.635s-0.07-0.566-0.07-0.863v-0.844c0-0.5-0.146-0.901-0.438-1.206s-0.684-0.457-1.175-0.457
			H333.159z M333.159,299.455h1.968c0.707,0,1.216-0.135,1.527-0.402c0.311-0.269,0.466-0.678,0.466-1.227
			c0-0.52-0.151-0.922-0.453-1.207c-0.303-0.285-0.773-0.428-1.413-0.428h-2.095V299.455z"/>
		<path d="M343.067,299.898l2.412-4.697h1.429l-3.244,5.992v3.25h-1.244v-3.332l-3.192-5.91h1.428L343.067,299.898z"/>
	</g>
</g>
<g>
	<g>
		<path d="M201.245,151.098h-1.25l-4.45-7.147l-0.038,0.013v7.135h-1.25v-9.242h1.25l4.45,7.135l0.038-0.013v-7.122h1.25V151.098z"
			/>
		<path d="M208.854,146.813h-4.234v3.301h4.882v0.984h-6.132v-9.242h6.062v0.984h-4.812v2.99h4.234V146.813z"/>
		<path d="M213.174,147.899l0.171,1.155l0.038,0.006l0.248-1.162l1.694-6.043h1.104l1.708,6.043l0.254,1.187h0.038l0.184-1.187
			l1.378-6.043h1.25l-2.228,9.242h-1.117l-1.822-6.411l-0.165-0.832h-0.038l-0.158,0.832l-1.854,6.411h-1.117l-2.222-9.242h1.244
			L213.174,147.899z"/>
		<path d="M201.245,164.956h-1.25v-4.082h-4.488v4.082h-1.25v-9.242h1.25v4.177h4.488v-4.177h1.25V164.956z"/>
		<path d="M208.625,162.576h-3.872l-0.876,2.38h-1.275l3.573-9.242h1.073l3.517,9.242h-1.276L208.625,162.576z M205.141,161.528
			h3.11l-1.523-4.208h-0.038L205.141,161.528z"/>
		<path d="M213.931,162.658l0.209,0.73h0.038l0.21-0.73l2.387-6.944h1.352l-3.434,9.242h-1.073l-3.434-9.242h1.358L213.931,162.658z
			"/>
		<path d="M224.973,160.671h-4.234v3.301h4.882v0.984h-6.132v-9.242h6.062v0.984h-4.812v2.99h4.234V160.671z"/>
		<path d="M234.062,164.956h-1.25l-4.45-7.147l-0.038,0.013v7.135h-1.25v-9.242h1.25l4.45,7.135l0.038-0.013v-7.122h1.25V164.956z"
			/>
		<path d="M200.788,175.85l0.013,0.038c0.018,0.868-0.287,1.594-0.914,2.18c-0.626,0.586-1.453,0.879-2.481,0.879
			c-1.045,0-1.897-0.37-2.555-1.111c-0.658-0.741-0.987-1.68-0.987-2.818v-1.644c0-1.138,0.329-2.079,0.987-2.822
			c0.657-0.742,1.51-1.114,2.555-1.114s1.877,0.278,2.494,0.834c0.618,0.557,0.919,1.294,0.901,2.212l-0.013,0.038h-1.199
			c0-0.647-0.19-1.16-0.571-1.536s-0.918-0.565-1.612-0.565c-0.698,0-1.255,0.281-1.67,0.844c-0.414,0.562-0.622,1.26-0.622,2.093
			v1.655c0,0.841,0.208,1.543,0.622,2.105c0.415,0.562,0.972,0.844,1.67,0.844c0.694,0,1.231-0.188,1.612-0.562
			c0.381-0.375,0.571-0.892,0.571-1.552H200.788z"/>
		<path d="M208.849,170.556h-2.971v8.258h-1.251v-8.258h-2.964v-0.984h7.186V170.556z"/>
		<path d="M211.501,174.809v4.005h-1.25v-9.236h3.345c1.012,0,1.784,0.224,2.317,0.673s0.8,1.1,0.8,1.955
			c0,0.474-0.124,0.887-0.371,1.238c-0.248,0.351-0.608,0.63-1.083,0.838c0.508,0.165,0.873,0.433,1.096,0.803
			c0.222,0.371,0.333,0.829,0.333,1.375v0.87c0,0.288,0.031,0.546,0.095,0.774s0.174,0.415,0.33,0.559v0.152h-1.288
			c-0.165-0.144-0.271-0.355-0.317-0.635s-0.07-0.567-0.07-0.863v-0.844c0-0.5-0.146-0.901-0.438-1.206s-0.684-0.457-1.175-0.457
			H211.501z M211.501,173.825h1.968c0.707,0,1.216-0.134,1.527-0.402c0.311-0.268,0.466-0.677,0.466-1.226
			c0-0.52-0.151-0.922-0.453-1.207c-0.303-0.285-0.773-0.428-1.413-0.428h-2.095V173.825z"/>
	</g>
</g>
<g>
	<g>
		<path d="M15.989,149.065l0.229,0.888h0.053l0.22-0.87l3.059-9.466h2.276l-4.57,12.797h-2.03l-4.562-12.797h2.276L15.989,149.065z"
			/>
		<path d="M31.204,146.657h-5.599v4.043h6.495v1.714H23.47v-12.797h8.569v1.714h-6.434v3.612h5.599V146.657z"/>
		<path d="M36.021,147.105v5.309h-2.136v-12.797h4.729c1.43,0,2.534,0.322,3.313,0.967s1.169,1.564,1.169,2.76
			c0,0.662-0.172,1.232-0.515,1.709s-0.842,0.86-1.498,1.147c0.721,0.229,1.239,0.602,1.556,1.121s0.475,1.156,0.475,1.912v1.063
			c0,0.375,0.047,0.741,0.141,1.099s0.252,0.63,0.475,0.817v0.202h-2.197c-0.234-0.193-0.386-0.498-0.453-0.914
			s-0.101-0.823-0.101-1.222v-1.028c0-0.656-0.188-1.178-0.562-1.564s-0.891-0.58-1.547-0.58H36.021z M36.021,145.391h2.479
			c0.855,0,1.479-0.164,1.872-0.492s0.589-0.829,0.589-1.503c0-0.645-0.193-1.15-0.58-1.516s-0.976-0.549-1.767-0.549h-2.593
			V145.391z"/>
		<path d="M55.051,150.682c-0.34,0.486-0.898,0.927-1.675,1.323s-1.773,0.593-2.992,0.593c-1.541,0-2.81-0.488-3.806-1.463
			s-1.494-2.237-1.494-3.784v-2.672c0-1.547,0.47-2.808,1.41-3.784s2.155-1.463,3.644-1.463c1.506,0,2.676,0.371,3.511,1.112
			s1.262,1.707,1.279,2.896l-0.018,0.053h-2.021c-0.047-0.703-0.298-1.27-0.752-1.701s-1.111-0.646-1.973-0.646
			c-0.885,0-1.599,0.331-2.141,0.992c-0.542,0.662-0.812,1.502-0.812,2.521v2.687c0,1.031,0.294,1.878,0.883,2.542
			s1.353,0.997,2.29,0.997c0.668,0,1.21-0.077,1.626-0.232c0.416-0.155,0.718-0.337,0.905-0.548v-2.595h-2.54v-1.6h4.676V150.682z"
			/>
		<path d="M65.224,146.657h-5.599v4.043h6.495v1.714h-8.631v-12.797h8.569v1.714h-6.434v3.612h5.599V146.657z"/>
		<path d="M77.897,152.414h-2.127l-5.678-9.343l-0.053,0.018v9.325h-2.136v-12.797h2.136l5.678,9.334l0.053-0.018v-9.316h2.127
			V152.414z"/>
		<path d="M90.526,152.414h-2.127l-5.678-9.343l-0.053,0.018v9.325h-2.136v-12.797h2.136l5.678,9.334l0.053-0.018v-9.316h2.127
			V152.414z"/>
		<path d="M100.897,146.657h-5.599v4.043h6.495v1.714h-8.631v-12.797h8.569v1.714h-6.434v3.612h5.599V146.657z"/>
		<path d="M110.566,149.117c0-0.531-0.198-0.965-0.594-1.304s-1.094-0.642-2.096-0.91c-1.43-0.375-2.53-0.872-3.301-1.49
			s-1.155-1.428-1.155-2.43c0-1.031,0.426-1.881,1.278-2.549s1.953-1.002,3.301-1.002c1.406,0,2.535,0.379,3.388,1.138
			s1.265,1.668,1.235,2.729l-0.018,0.053h-2.048c0-0.656-0.223-1.188-0.668-1.595s-1.081-0.611-1.907-0.611
			c-0.779,0-1.379,0.169-1.798,0.509c-0.419,0.339-0.628,0.777-0.628,1.315c0,0.485,0.227,0.889,0.681,1.21
			c0.454,0.322,1.206,0.625,2.255,0.912c1.377,0.369,2.423,0.879,3.138,1.529s1.072,1.479,1.072,2.487
			c0,1.066-0.427,1.915-1.279,2.544s-1.973,0.945-3.361,0.945c-1.336,0-2.508-0.356-3.516-1.068s-1.497-1.683-1.468-2.914
			l0.018-0.053h2.057c0,0.779,0.27,1.361,0.809,1.745s1.239,0.576,2.101,0.576c0.791,0,1.406-0.159,1.846-0.477
			C110.347,150.089,110.566,149.659,110.566,149.117z"/>
	</g>
</g>
<g>
	<g>
		<path d="M271.504,199.432v-12.797h4.254c1.418,0,2.525,0.292,3.322,0.875s1.195,1.455,1.195,2.615c0,0.58-0.167,1.099-0.501,1.556
			s-0.797,0.797-1.389,1.02c0.762,0.17,1.348,0.536,1.758,1.099s0.615,1.216,0.615,1.96c0,1.201-0.393,2.114-1.178,2.738
			s-1.869,0.936-3.252,0.936H271.504z M273.64,192.023h2.355c0.662,0,1.185-0.157,1.568-0.47s0.576-0.757,0.576-1.332
			c0-0.633-0.202-1.103-0.606-1.411s-0.996-0.461-1.775-0.461h-2.118V192.023z M273.64,193.614v4.104h2.689
			c0.738,0,1.307-0.168,1.705-0.504c0.398-0.336,0.598-0.823,0.598-1.46c0-0.678-0.167-1.205-0.501-1.579
			c-0.334-0.374-0.855-0.561-1.564-0.561H273.64z"/>
		<path d="M284.975,194.124v5.309h-2.136v-12.797h4.729c1.43,0,2.534,0.322,3.313,0.967s1.169,1.564,1.169,2.76
			c0,0.662-0.171,1.232-0.515,1.709c-0.342,0.478-0.842,0.86-1.498,1.147c0.721,0.229,1.239,0.602,1.556,1.121
			s0.475,1.156,0.475,1.912v1.063c0,0.375,0.047,0.741,0.141,1.099s0.252,0.63,0.475,0.817v0.202h-2.197
			c-0.234-0.193-0.386-0.498-0.452-0.914c-0.068-0.416-0.102-0.823-0.102-1.222v-1.028c0-0.656-0.188-1.178-0.562-1.564
			s-0.891-0.58-1.547-0.58H284.975z M284.975,192.41h2.479c0.855,0,1.479-0.164,1.872-0.492s0.589-0.829,0.589-1.503
			c0-0.645-0.193-1.15-0.58-1.516s-0.976-0.549-1.767-0.549h-2.593V192.41z"/>
		<path d="M296.791,199.432h-2.136v-12.797h2.136V199.432z"/>
		<path d="M306.343,196.135c0-0.531-0.197-0.965-0.594-1.304c-0.395-0.338-1.094-0.642-2.096-0.91
			c-1.43-0.375-2.53-0.872-3.301-1.49s-1.155-1.428-1.155-2.43c0-1.031,0.427-1.881,1.278-2.549
			c0.854-0.668,1.953-1.002,3.301-1.002c1.406,0,2.535,0.379,3.389,1.138c0.852,0.759,1.264,1.668,1.234,2.729l-0.018,0.053h-2.048
			c0-0.656-0.223-1.188-0.668-1.595s-1.081-0.611-1.907-0.611c-0.779,0-1.379,0.169-1.797,0.509
			c-0.42,0.339-0.629,0.777-0.629,1.315c0,0.485,0.227,0.889,0.682,1.21c0.453,0.322,1.205,0.625,2.254,0.912
			c1.377,0.369,2.423,0.879,3.138,1.529s1.072,1.479,1.072,2.487c0,1.066-0.427,1.915-1.278,2.544
			c-0.854,0.63-1.974,0.945-3.362,0.945c-1.336,0-2.508-0.356-3.516-1.068s-1.497-1.683-1.468-2.914l0.018-0.053h2.057
			c0,0.779,0.27,1.361,0.809,1.745s1.239,0.576,2.101,0.576c0.791,0,1.406-0.159,1.846-0.477
			C306.123,197.108,306.343,196.678,306.343,196.135z"/>
		<path d="M319.551,188.349h-3.867v11.083h-2.136v-11.083h-3.867v-1.714h9.87V188.349z"/>
		<path d="M331.021,194.185c0,1.564-0.491,2.861-1.473,3.889s-2.254,1.542-3.818,1.542c-1.535,0-2.781-0.514-3.74-1.542
			c-0.957-1.028-1.437-2.325-1.437-3.889v-2.303c0-1.559,0.479-2.854,1.437-3.885c0.959-1.031,2.202-1.547,3.731-1.547
			c1.564,0,2.839,0.516,3.823,1.547s1.477,2.326,1.477,3.885V194.185z M328.895,191.865c0-1.066-0.285-1.942-0.857-2.628
			c-0.57-0.686-1.343-1.028-2.315-1.028c-0.938,0-1.679,0.343-2.224,1.028s-0.817,1.562-0.817,2.628v2.32
			c0,1.078,0.272,1.961,0.817,2.65s1.289,1.033,2.232,1.033c0.979,0,1.75-0.343,2.316-1.028c0.564-0.686,0.848-1.57,0.848-2.654
			V191.865z"/>
		<path d="M335.372,197.718h5.88v1.714h-8.016v-12.797h2.136V197.718z"/>
	</g>
</g>
<g>
	<g>
		<path d="M273.181,488.424v5.309h-2.136v-12.797h4.729c1.43,0,2.534,0.322,3.313,0.967s1.169,1.564,1.169,2.76
			c0,0.662-0.172,1.232-0.515,1.709c-0.343,0.479-0.842,0.861-1.498,1.148c0.721,0.229,1.239,0.602,1.556,1.119
			c0.316,0.52,0.475,1.156,0.475,1.912v1.064c0,0.375,0.047,0.74,0.141,1.098s0.252,0.631,0.475,0.818v0.201h-2.197
			c-0.234-0.193-0.386-0.498-0.453-0.914s-0.101-0.822-0.101-1.221v-1.029c0-0.656-0.188-1.178-0.562-1.564s-0.891-0.58-1.547-0.58
			H273.181z M273.181,486.711h2.479c0.855,0,1.479-0.164,1.872-0.492s0.589-0.83,0.589-1.504c0-0.645-0.193-1.148-0.58-1.516
			c-0.387-0.365-0.976-0.549-1.767-0.549h-2.593V486.711z"/>
		<path d="M292.426,480.936v8.578c0,1.418-0.463,2.508-1.389,3.266c-0.926,0.76-2.136,1.139-3.63,1.139
			c-1.465,0-2.651-0.381-3.56-1.143s-1.362-1.85-1.362-3.262v-8.578h2.136v8.572c0,0.896,0.252,1.568,0.756,2.02
			s1.181,0.676,2.03,0.676c0.879,0,1.579-0.225,2.101-0.676s0.782-1.123,0.782-2.02v-8.572H292.426z"/>
		<path d="M303.882,482.65h-3.867v11.082h-2.136V482.65h-3.867v-1.715h9.87V482.65z"/>
		<path d="M307.731,492.02h5.88v1.713h-8.016v-12.797h2.136V492.02z"/>
		<path d="M322.918,490.744h-5.01l-1.02,2.988h-2.162l4.702-12.797h2.021l4.649,12.797h-2.171L322.918,490.744z M318.523,488.961
			h3.788l-1.854-5.467h-0.053L318.523,488.961z"/>
		<path d="M337.713,493.732h-2.127l-5.678-9.342l-0.053,0.018v9.324h-2.136v-12.797h2.136l5.678,9.334l0.053-0.018v-9.316h2.127
			V493.732z"/>
		<path d="M340.35,493.732v-12.797h4.148c1.623,0,2.942,0.508,3.959,1.521s1.525,2.316,1.525,3.91v1.943
			c0,1.6-0.509,2.902-1.525,3.91s-2.336,1.512-3.959,1.512H340.35z M342.485,482.65v9.369h1.951c1.061,0,1.894-0.346,2.5-1.037
			c0.606-0.689,0.91-1.582,0.91-2.678v-1.959c0-1.082-0.304-1.969-0.91-2.66c-0.606-0.689-1.439-1.035-2.5-1.035H342.485z"/>
	</g>
</g>
<g>
	<g>
		<path d="M256.205,73.088h-1.25v-4.082h-4.488v4.082h-1.25v-9.242h1.25v4.177h4.488v-4.177h1.25V73.088z"/>
		<path d="M259.617,73.088h-1.257v-9.242h1.257V73.088z"/>
		<path d="M268.766,73.088h-1.25l-4.45-7.147l-0.038,0.013v7.135h-1.25v-9.242h1.25l4.45,7.135l0.038-0.013v-7.122h1.25V73.088z"/>
		<path d="M276.374,68.804h-4.234v3.301h4.882v0.984h-6.132v-9.242h6.062v0.984h-4.812v2.99h4.234V68.804z"/>
		<path d="M283.528,70.761c0-0.421-0.158-0.773-0.476-1.057s-0.88-0.523-1.688-0.716c-0.978-0.233-1.74-0.577-2.288-1.031
			s-0.822-1.024-0.822-1.712c0-0.721,0.295-1.323,0.886-1.807c0.59-0.484,1.354-0.726,2.294-0.726c1.012,0,1.816,0.277,2.416,0.832
			c0.599,0.554,0.888,1.198,0.866,1.93l-0.013,0.038h-1.193c0-0.542-0.179-0.979-0.536-1.314c-0.358-0.334-0.871-0.501-1.54-0.501
			c-0.622,0-1.099,0.141-1.431,0.422c-0.333,0.282-0.499,0.649-0.499,1.102c0,0.402,0.181,0.737,0.54,1.006
			c0.359,0.269,0.943,0.505,1.752,0.708c0.974,0.241,1.714,0.597,2.222,1.066s0.762,1.052,0.762,1.746
			c0,0.745-0.305,1.344-0.914,1.796s-1.405,0.679-2.387,0.679c-0.923,0-1.738-0.25-2.447-0.752
			c-0.709-0.501-1.053-1.171-1.031-2.009l0.013-0.038h1.193c0,0.592,0.218,1.043,0.653,1.352c0.437,0.309,0.976,0.463,1.619,0.463
			c0.631,0,1.13-0.132,1.498-0.397S283.528,71.215,283.528,70.761z"/>
		<path d="M286.485,73.088v-9.242h3.015c0.965,0,1.721,0.208,2.267,0.625c0.546,0.417,0.818,1.042,0.818,1.876
			c0,0.411-0.131,0.777-0.394,1.102c-0.262,0.323-0.606,0.563-1.034,0.72c0.559,0.119,0.997,0.392,1.317,0.819
			c0.319,0.427,0.479,0.925,0.479,1.492c0,0.846-0.273,1.493-0.821,1.939c-0.549,0.447-1.292,0.67-2.231,0.67H286.485z
			 M287.735,67.775h2.025c0.466,0,0.844-0.128,1.136-0.384c0.292-0.256,0.438-0.612,0.438-1.069c0-0.5-0.158-0.873-0.473-1.12
			c-0.315-0.248-0.77-0.372-1.362-0.372h-1.765V67.775z M287.735,68.759v3.345h2.165c0.567,0,1.009-0.14,1.326-0.42
			s0.477-0.678,0.477-1.192c0-0.54-0.133-0.963-0.396-1.271c-0.265-0.308-0.672-0.462-1.223-0.462H287.735z"/>
		<path d="M301.453,63.846v6.265c0,1.007-0.327,1.777-0.98,2.311c-0.654,0.533-1.508,0.8-2.562,0.8c-1.016,0-1.84-0.268-2.473-0.803
			c-0.633-0.535-0.949-1.304-0.949-2.307v-6.265h1.251v6.26c0,0.698,0.199,1.228,0.597,1.589c0.397,0.362,0.923,0.542,1.574,0.542
			c0.686,0,1.238-0.181,1.66-0.542c0.421-0.361,0.631-0.891,0.631-1.589v-6.26H301.453z"/>
		<path d="M304.69,69.083v4.005h-1.25v-9.236h3.345c1.012,0,1.784,0.224,2.317,0.673s0.8,1.1,0.8,1.955
			c0,0.474-0.124,0.887-0.371,1.238c-0.248,0.351-0.608,0.63-1.083,0.838c0.508,0.165,0.873,0.433,1.096,0.803
			c0.222,0.371,0.333,0.829,0.333,1.375v0.87c0,0.288,0.031,0.546,0.095,0.774s0.174,0.415,0.33,0.559v0.152h-1.288
			c-0.165-0.144-0.271-0.355-0.317-0.635s-0.07-0.567-0.07-0.863v-0.844c0-0.5-0.146-0.901-0.438-1.206s-0.684-0.457-1.175-0.457
			H304.69z M304.69,68.099h1.968c0.707,0,1.216-0.134,1.527-0.402c0.311-0.268,0.466-0.677,0.466-1.226
			c0-0.52-0.151-0.922-0.453-1.207c-0.303-0.285-0.773-0.428-1.413-0.428h-2.095V68.099z"/>
		<path d="M318.569,71.863c-0.22,0.338-0.602,0.649-1.146,0.933s-1.247,0.425-2.11,0.425c-1.104,0-2.018-0.354-2.739-1.06
			s-1.082-1.621-1.082-2.742v-1.904c0-1.122,0.336-2.036,1.009-2.742s1.541-1.06,2.603-1.06c1.059,0,1.89,0.26,2.495,0.781
			s0.914,1.191,0.927,2.012l-0.013,0.038h-1.193c-0.038-0.538-0.242-0.979-0.612-1.327c-0.371-0.347-0.905-0.521-1.604-0.521
			c-0.706,0-1.275,0.264-1.707,0.793c-0.432,0.528-0.647,1.199-0.647,2.01v1.916c0,0.82,0.241,1.496,0.724,2.026
			s1.096,0.796,1.841,0.796c0.524,0,0.954-0.07,1.288-0.209c0.335-0.139,0.574-0.298,0.718-0.475v-2.096h-2.025v-0.984h3.275V71.863
			z"/>
	</g>
</g>
<g>
	<g>
		<path d="M283.005,136.542c0-0.421-0.158-0.773-0.476-1.057s-0.88-0.523-1.688-0.716c-0.978-0.233-1.74-0.577-2.288-1.031
			s-0.822-1.024-0.822-1.712c0-0.721,0.295-1.323,0.886-1.807c0.59-0.484,1.354-0.726,2.294-0.726c1.012,0,1.816,0.277,2.416,0.832
			c0.599,0.554,0.888,1.198,0.866,1.93l-0.013,0.038h-1.193c0-0.542-0.179-0.979-0.536-1.314c-0.358-0.334-0.871-0.501-1.54-0.501
			c-0.622,0-1.099,0.141-1.431,0.422c-0.333,0.282-0.499,0.649-0.499,1.102c0,0.402,0.181,0.737,0.54,1.006
			c0.359,0.269,0.943,0.505,1.752,0.708c0.974,0.241,1.714,0.597,2.222,1.066s0.762,1.052,0.762,1.746
			c0,0.745-0.305,1.344-0.914,1.796s-1.405,0.679-2.387,0.679c-0.923,0-1.738-0.25-2.447-0.752
			c-0.709-0.501-1.053-1.171-1.031-2.009l0.013-0.038h1.193c0,0.592,0.218,1.043,0.653,1.352c0.437,0.309,0.976,0.463,1.619,0.463
			c0.631,0,1.13-0.132,1.498-0.397S283.005,136.997,283.005,136.542z"/>
		<path d="M292.356,130.611h-2.971v8.258h-1.251v-8.258h-2.964v-0.984h7.186V130.611z"/>
		<path d="M297.783,136.489h-3.872l-0.876,2.38h-1.275l3.573-9.242h1.073l3.517,9.242h-1.276L297.783,136.489z M294.299,135.442
			h3.11l-1.523-4.208h-0.038L294.299,135.442z"/>
		<path d="M302.528,134.864v4.005h-1.25v-9.236h3.345c1.012,0,1.784,0.224,2.317,0.673s0.8,1.1,0.8,1.955
			c0,0.474-0.124,0.887-0.371,1.238c-0.248,0.351-0.608,0.63-1.083,0.838c0.508,0.165,0.873,0.433,1.096,0.803
			c0.222,0.371,0.333,0.829,0.333,1.375v0.87c0,0.288,0.031,0.546,0.095,0.774s0.174,0.415,0.33,0.559v0.152h-1.288
			c-0.165-0.144-0.271-0.355-0.317-0.635s-0.07-0.567-0.07-0.863v-0.844c0-0.5-0.146-0.901-0.438-1.206s-0.684-0.457-1.175-0.457
			H302.528z M302.528,133.88h1.968c0.707,0,1.216-0.134,1.527-0.402c0.311-0.268,0.466-0.677,0.466-1.226
			c0-0.52-0.151-0.922-0.453-1.207c-0.303-0.285-0.773-0.428-1.413-0.428h-2.095V133.88z"/>
		<path d="M312.064,134.699h-1.079v4.17h-1.25v-9.242h1.25v4.088h0.965l3.308-4.088h1.384l0.019,0.032l-3.586,4.437l3.847,4.742
			l-0.02,0.032h-1.491L312.064,134.699z"/>
		<path d="M322.924,136.542c0-0.421-0.158-0.773-0.476-1.057s-0.88-0.523-1.688-0.716c-0.978-0.233-1.74-0.577-2.288-1.031
			s-0.822-1.024-0.822-1.712c0-0.721,0.295-1.323,0.886-1.807c0.59-0.484,1.354-0.726,2.294-0.726c1.012,0,1.816,0.277,2.416,0.832
			c0.599,0.554,0.888,1.198,0.866,1.93l-0.013,0.038h-1.193c0-0.542-0.179-0.979-0.536-1.314c-0.358-0.334-0.871-0.501-1.54-0.501
			c-0.622,0-1.099,0.141-1.431,0.422c-0.333,0.282-0.499,0.649-0.499,1.102c0,0.402,0.181,0.737,0.54,1.006
			c0.359,0.269,0.943,0.505,1.752,0.708c0.974,0.241,1.714,0.597,2.222,1.066s0.762,1.052,0.762,1.746
			c0,0.745-0.305,1.344-0.914,1.796s-1.405,0.679-2.387,0.679c-0.923,0-1.738-0.25-2.447-0.752
			c-0.709-0.501-1.053-1.171-1.031-2.009l0.013-0.038h1.193c0,0.592,0.218,1.043,0.653,1.352c0.437,0.309,0.976,0.463,1.619,0.463
			c0.631,0,1.13-0.132,1.498-0.397S322.924,136.997,322.924,136.542z"/>
		<path d="M325.88,138.87v-9.242h3.015c0.965,0,1.721,0.208,2.267,0.625c0.546,0.417,0.818,1.042,0.818,1.876
			c0,0.411-0.131,0.777-0.394,1.102c-0.262,0.323-0.606,0.563-1.034,0.72c0.559,0.119,0.997,0.392,1.317,0.819
			c0.319,0.427,0.479,0.925,0.479,1.492c0,0.846-0.273,1.493-0.821,1.939c-0.549,0.447-1.292,0.67-2.231,0.67H325.88z
			 M327.13,133.557h2.025c0.466,0,0.844-0.128,1.136-0.384c0.292-0.256,0.438-0.612,0.438-1.069c0-0.5-0.158-0.873-0.473-1.12
			c-0.315-0.248-0.77-0.372-1.362-0.372h-1.765V133.557z M327.13,134.541v3.345h2.165c0.567,0,1.009-0.14,1.326-0.42
			s0.477-0.678,0.477-1.192c0-0.54-0.133-0.963-0.396-1.271c-0.265-0.308-0.672-0.462-1.223-0.462H327.13z"/>
		<path d="M341.169,135.074c0,1.13-0.351,2.067-1.051,2.812s-1.609,1.117-2.727,1.117c-1.079,0-1.956-0.373-2.631-1.117
			s-1.013-1.682-1.013-2.812v-1.644c0-1.125,0.338-2.063,1.013-2.812s1.552-1.124,2.631-1.124c1.117,0,2.026,0.374,2.727,1.121
			c0.7,0.747,1.051,1.685,1.051,2.815V135.074z M339.918,133.417c0-0.846-0.229-1.541-0.686-2.082s-1.07-0.812-1.841-0.812
			c-0.728,0-1.309,0.271-1.742,0.812s-0.65,1.236-0.65,2.082v1.657c0,0.855,0.217,1.553,0.65,2.095s1.015,0.812,1.742,0.812
			c0.774,0,1.39-0.27,1.845-0.81c0.454-0.539,0.682-1.239,0.682-2.098V133.417z"/>
		<path d="M344.203,134.864v4.005h-1.25v-9.236h3.345c1.012,0,1.784,0.224,2.317,0.673s0.8,1.1,0.8,1.955
			c0,0.474-0.124,0.887-0.371,1.238c-0.248,0.351-0.608,0.63-1.083,0.838c0.508,0.165,0.873,0.433,1.096,0.803
			c0.222,0.371,0.333,0.829,0.333,1.375v0.87c0,0.288,0.031,0.546,0.095,0.774s0.174,0.415,0.33,0.559v0.152h-1.288
			c-0.165-0.144-0.271-0.355-0.317-0.635s-0.07-0.567-0.07-0.863v-0.844c0-0.5-0.146-0.901-0.438-1.206s-0.684-0.457-1.175-0.457
			H344.203z M344.203,133.88h1.968c0.707,0,1.216-0.134,1.527-0.402c0.311-0.268,0.466-0.677,0.466-1.226
			c0-0.52-0.151-0.922-0.453-1.207c-0.303-0.285-0.773-0.428-1.413-0.428h-2.095V133.88z"/>
		<path d="M358.394,135.074c0,1.13-0.351,2.067-1.051,2.812s-1.609,1.117-2.727,1.117c-1.079,0-1.956-0.373-2.631-1.117
			s-1.013-1.682-1.013-2.812v-1.644c0-1.125,0.338-2.063,1.013-2.812s1.552-1.124,2.631-1.124c1.117,0,2.026,0.374,2.727,1.121
			c0.7,0.747,1.051,1.685,1.051,2.815V135.074z M357.143,133.417c0-0.846-0.229-1.541-0.686-2.082s-1.07-0.812-1.841-0.812
			c-0.728,0-1.309,0.271-1.742,0.812s-0.65,1.236-0.65,2.082v1.657c0,0.855,0.217,1.553,0.65,2.095s1.015,0.812,1.742,0.812
			c0.774,0,1.39-0.27,1.845-0.81c0.454-0.539,0.682-1.239,0.682-2.098V133.417z"/>
	</g>
</g>
<g>
	<g>
		<path d="M292.667,318.699v4.005h-1.25v-9.235h3.345c1.012,0,1.784,0.224,2.317,0.672c0.533,0.449,0.8,1.101,0.8,1.955
			c0,0.475-0.124,0.887-0.371,1.238c-0.248,0.352-0.608,0.631-1.083,0.838c0.508,0.165,0.873,0.433,1.096,0.803
			c0.222,0.371,0.333,0.828,0.333,1.375v0.869c0,0.287,0.031,0.546,0.095,0.774s0.174,0.415,0.33,0.559v0.152h-1.288
			c-0.165-0.144-0.271-0.355-0.317-0.635s-0.07-0.567-0.07-0.863v-0.845c0-0.499-0.146-0.9-0.438-1.205s-0.684-0.457-1.175-0.457
			H292.667z M292.667,317.715h1.968c0.707,0,1.216-0.135,1.527-0.402c0.311-0.268,0.466-0.677,0.466-1.226
			c0-0.52-0.151-0.922-0.453-1.207c-0.303-0.285-0.773-0.428-1.413-0.428h-2.095V317.715z"/>
		<path d="M301.162,322.704h-1.257v-9.242h1.257V322.704z"/>
		<path d="M304.57,318.997v3.707h-1.25v-9.242h3.535c0.986,0,1.752,0.254,2.298,0.762s0.819,1.177,0.819,2.006
			c0,0.843-0.273,1.514-0.819,2.016c-0.546,0.501-1.312,0.752-2.298,0.752H304.57z M304.57,318.014h2.285
			c0.627,0,1.095-0.168,1.403-0.504s0.463-0.76,0.463-1.271s-0.155-0.938-0.466-1.28c-0.312-0.342-0.778-0.514-1.4-0.514h-2.285
			V318.014z"/>
		<path d="M318.025,314.445h-2.971v8.259h-1.251v-8.259h-2.964v-0.983h7.186V314.445z"/>
		<path d="M326.207,318.908c0,1.13-0.351,2.067-1.051,2.812c-0.7,0.744-1.609,1.117-2.727,1.117c-1.079,0-1.956-0.373-2.631-1.117
			c-0.675-0.745-1.013-1.683-1.013-2.812v-1.645c0-1.125,0.338-2.062,1.013-2.812s1.552-1.124,2.631-1.124
			c1.117,0,2.026,0.374,2.727,1.121c0.7,0.746,1.051,1.686,1.051,2.814V318.908z M324.956,317.252c0-0.847-0.229-1.541-0.686-2.082
			c-0.457-0.542-1.07-0.812-1.841-0.812c-0.728,0-1.309,0.271-1.742,0.812c-0.434,0.541-0.65,1.235-0.65,2.082v1.656
			c0,0.855,0.217,1.553,0.65,2.095s1.015,0.812,1.742,0.812c0.774,0,1.39-0.27,1.845-0.81c0.454-0.539,0.682-1.238,0.682-2.098
			V317.252z"/>
		<path d="M334.98,322.704h-1.25l-4.45-7.147l-0.038,0.013v7.135h-1.25v-9.242h1.25l4.45,7.135l0.038-0.013v-7.122h1.25V322.704z"/>
	</g>
</g>
<g>
	<g>
		<path d="M153.353,351.818c0-0.421-0.158-0.773-0.476-1.057c-0.317-0.285-0.88-0.523-1.688-0.717
			c-0.978-0.233-1.74-0.576-2.288-1.031c-0.548-0.453-0.822-1.023-0.822-1.711c0-0.721,0.295-1.324,0.886-1.807
			c0.59-0.484,1.354-0.727,2.294-0.727c1.012,0,1.816,0.277,2.416,0.832c0.599,0.555,0.888,1.197,0.866,1.93l-0.013,0.038h-1.193
			c0-0.542-0.179-0.979-0.536-1.313c-0.358-0.335-0.871-0.502-1.54-0.502c-0.622,0-1.099,0.141-1.431,0.422
			c-0.333,0.281-0.499,0.648-0.499,1.102c0,0.402,0.181,0.737,0.54,1.006c0.359,0.27,0.943,0.505,1.752,0.708
			c0.974,0.241,1.714,0.597,2.222,1.066s0.762,1.052,0.762,1.745c0,0.745-0.305,1.344-0.914,1.797s-1.405,0.68-2.387,0.68
			c-0.923,0-1.738-0.251-2.447-0.753c-0.709-0.501-1.053-1.171-1.031-2.009l0.013-0.038h1.193c0,0.593,0.218,1.043,0.653,1.353
			c0.437,0.309,0.976,0.463,1.619,0.463c0.631,0,1.13-0.133,1.498-0.397S153.353,352.272,153.353,351.818z"/>
		<path d="M161.433,351.766h-3.872l-0.876,2.38h-1.275l3.573-9.242h1.073l3.517,9.242h-1.276L161.433,351.766z M157.948,350.718
			h3.11l-1.523-4.208h-0.038L157.948,350.718z"/>
		<path d="M166.178,353.162h4.374v0.983h-5.624v-9.242h1.25V353.162z"/>
		<path d="M173.26,354.146h-1.257v-9.242h1.257V354.146z"/>
		<path d="M180.438,351.818c0-0.421-0.158-0.773-0.476-1.057c-0.317-0.285-0.88-0.523-1.688-0.717
			c-0.978-0.233-1.74-0.576-2.288-1.031c-0.548-0.453-0.822-1.023-0.822-1.711c0-0.721,0.295-1.324,0.886-1.807
			c0.59-0.484,1.354-0.727,2.294-0.727c1.012,0,1.816,0.277,2.416,0.832c0.599,0.555,0.888,1.197,0.866,1.93l-0.013,0.038h-1.193
			c0-0.542-0.179-0.979-0.536-1.313c-0.358-0.335-0.871-0.502-1.54-0.502c-0.622,0-1.099,0.141-1.431,0.422
			c-0.333,0.281-0.499,0.648-0.499,1.102c0,0.402,0.181,0.737,0.54,1.006c0.359,0.27,0.943,0.505,1.752,0.708
			c0.974,0.241,1.714,0.597,2.222,1.066s0.762,1.052,0.762,1.745c0,0.745-0.305,1.344-0.914,1.797s-1.405,0.68-2.387,0.68
			c-0.923,0-1.738-0.251-2.447-0.753c-0.709-0.501-1.053-1.171-1.031-2.009l0.013-0.038h1.193c0,0.593,0.218,1.043,0.653,1.353
			c0.437,0.309,0.976,0.463,1.619,0.463c0.631,0,1.13-0.133,1.498-0.397S180.438,352.272,180.438,351.818z"/>
		<path d="M183.395,354.146v-9.242h3.015c0.965,0,1.721,0.208,2.267,0.625s0.818,1.042,0.818,1.876c0,0.41-0.131,0.777-0.394,1.102
			c-0.262,0.323-0.606,0.563-1.034,0.721c0.559,0.118,0.997,0.391,1.317,0.818c0.319,0.428,0.479,0.925,0.479,1.492
			c0,0.846-0.273,1.492-0.821,1.938c-0.549,0.446-1.292,0.67-2.231,0.67H183.395z M184.645,348.832h2.025
			c0.466,0,0.844-0.127,1.136-0.384c0.292-0.256,0.438-0.612,0.438-1.069c0-0.5-0.158-0.873-0.473-1.12
			c-0.315-0.248-0.77-0.372-1.362-0.372h-1.765V348.832z M184.645,349.816v3.346h2.165c0.567,0,1.009-0.141,1.326-0.421
			s0.477-0.678,0.477-1.192c0-0.539-0.133-0.963-0.396-1.271c-0.265-0.308-0.672-0.462-1.223-0.462H184.645z"/>
		<path d="M198.362,344.903v6.265c0,1.008-0.327,1.777-0.98,2.311c-0.654,0.533-1.508,0.801-2.562,0.801
			c-1.016,0-1.84-0.268-2.473-0.804c-0.633-0.535-0.949-1.304-0.949-2.308v-6.265h1.251v6.261c0,0.697,0.199,1.227,0.597,1.588
			c0.397,0.362,0.923,0.543,1.574,0.543c0.686,0,1.238-0.181,1.66-0.543c0.421-0.361,0.631-0.891,0.631-1.588v-6.261H198.362z"/>
		<path d="M201.6,350.141v4.005h-1.25v-9.235h3.345c1.012,0,1.784,0.224,2.317,0.672c0.533,0.449,0.8,1.101,0.8,1.955
			c0,0.475-0.124,0.887-0.371,1.238c-0.248,0.352-0.608,0.631-1.083,0.838c0.508,0.165,0.873,0.433,1.096,0.803
			c0.222,0.371,0.333,0.828,0.333,1.375v0.869c0,0.287,0.031,0.546,0.095,0.774s0.174,0.415,0.33,0.559v0.152h-1.288
			c-0.165-0.144-0.271-0.355-0.317-0.635s-0.07-0.567-0.07-0.863v-0.845c0-0.499-0.146-0.9-0.438-1.205s-0.684-0.457-1.175-0.457
			H201.6z M201.6,349.156h1.968c0.707,0,1.216-0.135,1.527-0.402c0.311-0.268,0.466-0.677,0.466-1.226
			c0-0.52-0.151-0.922-0.453-1.207c-0.303-0.285-0.773-0.428-1.413-0.428H201.6V349.156z"/>
		<path d="M211.508,349.601l2.412-4.697h1.429l-3.244,5.992v3.25h-1.244v-3.333l-3.192-5.909h1.428L211.508,349.601z"/>
	</g>
</g>
<g>
	<g>
		<path d="M157.074,387.761h4.374v0.983h-5.624v-9.242h1.25V387.761z"/>
		<path d="M168.353,384.46h-4.234v3.301H169v0.983h-6.132v-9.242h6.062v0.984h-4.812v2.99h4.234V384.46z"/>
		<path d="M171.742,388.744h-1.257v-9.242h1.257V388.744z"/>
		<path d="M180.511,385.78l0.013,0.038c0.018,0.867-0.287,1.594-0.914,2.18c-0.626,0.587-1.453,0.88-2.481,0.88
			c-1.045,0-1.897-0.37-2.555-1.11c-0.658-0.741-0.987-1.681-0.987-2.818v-1.645c0-1.139,0.329-2.078,0.987-2.822
			c0.657-0.742,1.51-1.113,2.555-1.113s1.877,0.278,2.494,0.834c0.618,0.557,0.919,1.295,0.901,2.213l-0.013,0.038h-1.199
			c0-0.647-0.19-1.159-0.571-1.536s-0.918-0.564-1.612-0.564c-0.698,0-1.255,0.281-1.67,0.844c-0.414,0.562-0.622,1.26-0.622,2.092
			v1.656c0,0.841,0.208,1.543,0.622,2.105c0.415,0.562,0.972,0.844,1.67,0.844c0.694,0,1.231-0.188,1.612-0.562
			s0.571-0.892,0.571-1.552H180.511z"/>
		<path d="M187.606,384.46h-4.234v3.301h4.882v0.983h-6.132v-9.242h6.062v0.984h-4.812v2.99h4.234V384.46z"/>
		<path d="M194.761,386.418c0-0.422-0.158-0.773-0.476-1.058s-0.88-0.522-1.688-0.716c-0.978-0.234-1.74-0.577-2.288-1.031
			s-0.822-1.024-0.822-1.712c0-0.721,0.295-1.323,0.886-1.807c0.59-0.483,1.354-0.726,2.294-0.726c1.012,0,1.816,0.277,2.416,0.832
			c0.599,0.554,0.888,1.197,0.866,1.93l-0.013,0.037h-1.193c0-0.541-0.179-0.979-0.536-1.313c-0.358-0.335-0.871-0.501-1.54-0.501
			c-0.622,0-1.099,0.141-1.431,0.422c-0.333,0.281-0.499,0.648-0.499,1.102c0,0.401,0.181,0.736,0.54,1.006
			c0.359,0.269,0.943,0.504,1.752,0.707c0.974,0.242,1.714,0.598,2.222,1.066c0.508,0.471,0.762,1.053,0.762,1.746
			c0,0.744-0.305,1.344-0.914,1.797c-0.609,0.452-1.405,0.679-2.387,0.679c-0.923,0-1.738-0.251-2.447-0.753
			c-0.709-0.5-1.053-1.17-1.031-2.008l0.013-0.039h1.193c0,0.593,0.218,1.043,0.653,1.353c0.437,0.31,0.976,0.464,1.619,0.464
			c0.631,0,1.13-0.133,1.498-0.398C194.577,387.231,194.761,386.871,194.761,386.418z"/>
		<path d="M204.112,380.486h-2.971v8.258h-1.251v-8.258h-2.964v-0.984h7.186V380.486z"/>
		<path d="M211,384.46h-4.234v3.301h4.882v0.983h-6.132v-9.242h6.062v0.984h-4.812v2.99H211V384.46z"/>
		<path d="M214.352,384.739v4.005h-1.25v-9.235h3.345c1.012,0,1.784,0.224,2.317,0.673s0.8,1.1,0.8,1.955
			c0,0.475-0.124,0.887-0.371,1.238c-0.248,0.351-0.608,0.63-1.083,0.838c0.508,0.164,0.873,0.432,1.096,0.803
			c0.222,0.37,0.333,0.828,0.333,1.374v0.87c0,0.287,0.031,0.545,0.095,0.773s0.174,0.415,0.33,0.559v0.152h-1.288
			c-0.165-0.144-0.271-0.355-0.317-0.635s-0.07-0.566-0.07-0.863v-0.844c0-0.5-0.146-0.901-0.438-1.206s-0.684-0.457-1.175-0.457
			H214.352z M214.352,383.756h1.968c0.707,0,1.216-0.135,1.527-0.402c0.311-0.269,0.466-0.678,0.466-1.227
			c0-0.52-0.151-0.922-0.453-1.207c-0.303-0.285-0.773-0.428-1.413-0.428h-2.095V383.756z"/>
	</g>
</g>
<g>
	<g>
		<path d="M165.949,423.344v-9.242h3.015c0.965,0,1.721,0.208,2.267,0.625c0.546,0.416,0.818,1.042,0.818,1.875
			c0,0.411-0.131,0.777-0.394,1.102c-0.262,0.324-0.606,0.564-1.034,0.721c0.559,0.119,0.997,0.392,1.317,0.818
			c0.319,0.428,0.479,0.926,0.479,1.492c0,0.846-0.273,1.492-0.821,1.939c-0.549,0.446-1.292,0.67-2.231,0.67H165.949z
			 M167.199,418.03h2.025c0.466,0,0.844-0.128,1.136-0.384s0.438-0.613,0.438-1.07c0-0.499-0.158-0.873-0.473-1.119
			c-0.315-0.248-0.77-0.372-1.362-0.372h-1.765V418.03z M167.199,419.014v3.346h2.165c0.567,0,1.009-0.141,1.326-0.42
			c0.317-0.281,0.477-0.678,0.477-1.192c0-0.54-0.133-0.964-0.396-1.271c-0.265-0.309-0.672-0.463-1.223-0.463H167.199z"/>
		<path d="M175.358,419.338v4.006h-1.25v-9.236h3.345c1.012,0,1.784,0.225,2.317,0.673s0.8,1.101,0.8,1.955
			c0,0.474-0.124,0.887-0.371,1.237c-0.248,0.352-0.608,0.631-1.083,0.838c0.508,0.166,0.873,0.434,1.096,0.803
			c0.222,0.371,0.333,0.829,0.333,1.375v0.869c0,0.288,0.031,0.547,0.095,0.775s0.174,0.414,0.33,0.559v0.152h-1.288
			c-0.165-0.145-0.271-0.355-0.317-0.635s-0.07-0.567-0.07-0.863v-0.845c0-0.499-0.146-0.901-0.438-1.206s-0.684-0.457-1.175-0.457
			H175.358z M175.358,418.354h1.968c0.707,0,1.216-0.134,1.527-0.402c0.311-0.268,0.466-0.676,0.466-1.225
			c0-0.52-0.151-0.922-0.453-1.207c-0.303-0.285-0.773-0.428-1.413-0.428h-2.095V418.354z"/>
		<path d="M188.082,420.963h-3.872l-0.876,2.381h-1.275l3.573-9.242h1.073l3.517,9.242h-1.276L188.082,420.963z M184.598,419.916
			h3.11l-1.523-4.209h-0.038L184.598,419.916z"/>
		<path d="M198.565,423.344h-1.25l-4.45-7.148l-0.038,0.014v7.135h-1.25v-9.242h1.25l4.45,7.135l0.038-0.014v-7.121h1.25V423.344z"
			/>
		<path d="M200.688,423.344v-9.242h2.837c1.211,0,2.182,0.371,2.914,1.113s1.098,1.703,1.098,2.879v1.264
			c0,1.18-0.365,2.14-1.098,2.879c-0.732,0.738-1.703,1.107-2.914,1.107H200.688z M201.938,415.085v7.274h1.587
			c0.855,0,1.529-0.281,2.022-0.844c0.492-0.562,0.739-1.283,0.739-2.162v-1.275c0-0.871-0.247-1.588-0.739-2.149
			c-0.493-0.562-1.167-0.844-2.022-0.844H201.938z"/>
		<path d="M216.318,419.547c0,1.131-0.351,2.068-1.051,2.812s-1.609,1.117-2.727,1.117c-1.079,0-1.956-0.373-2.631-1.117
			s-1.013-1.682-1.013-2.812v-1.644c0-1.126,0.338-2.063,1.013-2.812c0.675-0.75,1.552-1.124,2.631-1.124
			c1.117,0,2.026,0.374,2.727,1.12c0.7,0.747,1.051,1.686,1.051,2.815V419.547z M215.067,417.891c0-0.846-0.229-1.541-0.686-2.082
			s-1.07-0.812-1.841-0.812c-0.728,0-1.309,0.271-1.742,0.812s-0.65,1.236-0.65,2.082v1.656c0,0.855,0.217,1.554,0.65,2.096
			c0.434,0.541,1.015,0.812,1.742,0.812c0.774,0,1.39-0.27,1.845-0.811c0.454-0.539,0.682-1.238,0.682-2.098V417.891z"/>
		<path d="M225.091,423.344h-1.25l-4.45-7.148l-0.038,0.014v7.135h-1.25v-9.242h1.25l4.45,7.135l0.038-0.014v-7.121h1.25V423.344z"
			/>
	</g>
</g>
<g>
	<g>
		<path d="M165.465,454.235v3.707h-1.25V448.7h3.535c0.986,0,1.752,0.254,2.298,0.762s0.819,1.177,0.819,2.006
			c0,0.843-0.273,1.514-0.819,2.016c-0.546,0.501-1.312,0.752-2.298,0.752H165.465z M165.465,453.252h2.285
			c0.627,0,1.095-0.168,1.403-0.504s0.463-0.76,0.463-1.271s-0.155-0.938-0.466-1.28c-0.312-0.342-0.778-0.514-1.4-0.514h-2.285
			V453.252z"/>
		<path d="M173.714,457.942h-1.257V448.7h1.257V457.942z"/>
		<path d="M182.334,449.684h-2.971v8.259h-1.251v-8.259h-2.964V448.7h7.186V449.684z"/>
		<path d="M190.456,449.684h-2.971v8.259h-1.251v-8.259h-2.964V448.7h7.186V449.684z"/>
		<path d="M196.834,455.615c0-0.421-0.158-0.773-0.476-1.057c-0.317-0.285-0.88-0.523-1.688-0.717
			c-0.978-0.233-1.74-0.576-2.288-1.031c-0.548-0.453-0.822-1.023-0.822-1.711c0-0.721,0.295-1.324,0.886-1.807
			c0.59-0.484,1.354-0.727,2.294-0.727c1.012,0,1.816,0.277,2.416,0.832c0.599,0.555,0.888,1.197,0.866,1.93l-0.013,0.038h-1.193
			c0-0.542-0.179-0.979-0.536-1.313c-0.358-0.335-0.871-0.502-1.54-0.502c-0.622,0-1.099,0.141-1.431,0.422
			c-0.333,0.281-0.499,0.648-0.499,1.102c0,0.402,0.181,0.737,0.54,1.006c0.359,0.27,0.943,0.505,1.752,0.708
			c0.974,0.241,1.714,0.597,2.222,1.066s0.762,1.052,0.762,1.745c0,0.745-0.305,1.344-0.914,1.797s-1.405,0.68-2.387,0.68
			c-0.923,0-1.738-0.251-2.447-0.753c-0.709-0.501-1.053-1.171-1.031-2.009l0.013-0.038h1.193c0,0.593,0.218,1.043,0.653,1.353
			c0.437,0.309,0.976,0.463,1.619,0.463c0.631,0,1.13-0.133,1.498-0.397S196.834,456.069,196.834,455.615z"/>
		<path d="M205.255,453.854h-4.215v4.088h-1.25V448.7h6.112v0.983h-4.862v3.188h4.215V453.854z"/>
		<path d="M214.235,454.146c0,1.13-0.351,2.067-1.051,2.812c-0.7,0.744-1.609,1.117-2.727,1.117c-1.079,0-1.956-0.373-2.631-1.117
			c-0.675-0.745-1.013-1.683-1.013-2.812v-1.645c0-1.125,0.338-2.062,1.013-2.812s1.552-1.124,2.631-1.124
			c1.117,0,2.026,0.374,2.727,1.121c0.7,0.746,1.051,1.686,1.051,2.814V454.146z M212.984,452.49c0-0.847-0.229-1.541-0.686-2.082
			c-0.457-0.542-1.07-0.812-1.841-0.812c-0.728,0-1.309,0.271-1.742,0.812c-0.434,0.541-0.65,1.235-0.65,2.082v1.656
			c0,0.855,0.217,1.553,0.65,2.095s1.015,0.812,1.742,0.812c0.774,0,1.39-0.27,1.845-0.81c0.454-0.539,0.682-1.238,0.682-2.098
			V452.49z"/>
		<path d="M217.27,453.938v4.005h-1.25v-9.235h3.345c1.012,0,1.784,0.224,2.317,0.672c0.533,0.449,0.8,1.101,0.8,1.955
			c0,0.475-0.124,0.887-0.371,1.238c-0.248,0.352-0.608,0.631-1.083,0.838c0.508,0.165,0.873,0.433,1.096,0.803
			c0.222,0.371,0.333,0.828,0.333,1.375v0.869c0,0.287,0.031,0.546,0.095,0.774s0.174,0.415,0.33,0.559v0.152h-1.288
			c-0.165-0.144-0.271-0.355-0.317-0.635s-0.07-0.567-0.07-0.863V455.6c0-0.499-0.146-0.9-0.438-1.205s-0.684-0.457-1.175-0.457
			H217.27z M217.27,452.953h1.968c0.707,0,1.216-0.135,1.527-0.402c0.311-0.268,0.466-0.677,0.466-1.226
			c0-0.52-0.151-0.922-0.453-1.207c-0.303-0.285-0.773-0.428-1.413-0.428h-2.095V452.953z"/>
		<path d="M224.478,457.942V448.7h2.837c1.211,0,2.182,0.371,2.914,1.114c0.732,0.742,1.098,1.702,1.098,2.879v1.263
			c0,1.181-0.365,2.14-1.098,2.879c-0.732,0.738-1.703,1.107-2.914,1.107H224.478z M225.728,449.684v7.275h1.587
			c0.855,0,1.529-0.281,2.022-0.844c0.492-0.562,0.739-1.283,0.739-2.163v-1.274c0-0.871-0.247-1.588-0.739-2.15
			c-0.493-0.562-1.167-0.844-2.022-0.844H225.728z"/>
	</g>
</g>
</svg>
